<?xml version="1.0" encoding="utf-8"?>
<!-- Generator: Adobe Illustrator 25.2.1, SVG Export Plug-In . SVG Version: 6.00 Build 0)  -->
<svg version="1.1" id="Layer_1" xmlns="http://www.w3.org/2000/svg" xmlns:xlink="http://www.w3.org/1999/xlink" x="0px" y="0px"
	 viewBox="0 0 1920 1080" style="enable-background:new 0 0 1920 1080;" xml:space="preserve">
<style type="text/css">
	.st0{fill:#274191;}
	.st1{fill:#FDFDFE;}
	.st2{fill:#294292;}
	.st3{fill:#2C4493;}
	.st4{fill:#2A4393;}
	.st5{fill:#2C4593;}
	.st6{fill:#FEFDFD;}
	.st7{fill:#F1683B;}
	.st8{fill:#274091;}
	.st9{fill:#284191;}
	.st10{fill:#2B4493;}
	.st11{fill:#2E4694;}
	.st12{fill:#FDFDFD;}
</style>
<path class="st0" d="M956.05,1045.66c-6.61,0-13.22,0.13-19.83-0.04c-6.53-0.16-13.07-0.48-19.58-0.97
	c-6.65-0.5-13.3-1.15-19.92-2.02c-5.97-0.78-11.87-1.98-17.82-2.91c-4.79-0.75-9.63-1.2-14.39-2.11c-5.68-1.08-11.3-2.55-16.95-3.78
	c-5-1.09-10.04-2.01-15.02-3.17c-3.62-0.84-7.19-1.92-10.76-2.97c-5.45-1.6-10.91-3.16-16.3-4.94c-6.7-2.21-13.35-4.6-20-6.98
	c-6.47-2.31-12.96-4.57-19.35-7.09c-16.73-6.6-32.84-14.56-48.71-22.98c-7.91-4.2-15.59-8.86-23.25-13.52
	c-6.66-4.05-13.19-8.33-19.69-12.64c-5.43-3.61-10.83-7.28-16.07-11.16c-5.03-3.73-9.9-7.69-14.73-11.68
	c-6.54-5.4-12.98-10.92-19.44-16.4c-2.44-2.07-4.91-4.09-7.23-6.29c-7.99-7.57-16.01-15.12-23.85-22.85
	c-4.28-4.23-8.28-8.77-12.28-13.27c-3.97-4.47-7.91-8.97-11.64-13.64c-4.25-5.32-8.22-10.87-12.36-16.28
	c-3.55-4.64-7.3-9.13-10.75-13.85c-3.12-4.28-5.98-8.77-8.9-13.2c-3.51-5.34-7.06-10.65-10.41-16.09
	c-2.83-4.59-5.49-9.29-8.05-14.03c-5.38-9.94-10.87-19.83-15.89-29.94c-4.17-8.4-7.89-17.03-11.53-25.67
	c-3.14-7.45-6.03-15.02-8.79-22.62c-2.29-6.31-4.28-12.73-6.31-19.13c-1.71-5.37-3.44-10.74-4.87-16.19
	c-1.55-5.96-2.7-12.02-4.14-18c-1.21-5.01-2.65-9.97-3.88-14.98c-0.52-2.11-0.71-4.29-1.1-6.43c-0.96-5.2-1.99-10.39-2.92-15.6
	c-0.45-2.52-0.83-5.06-1.08-7.61c-0.41-4.07-0.56-8.16-1.05-12.22c-0.49-4.09-1.26-8.15-1.91-12.23c-0.05-0.3-0.05-0.61-0.06-0.91
	c-0.33-7.13-0.74-14.25-0.98-21.38c-0.39-11.29-0.88-22.59-0.93-33.89c-0.03-8.14,0.53-16.29,0.94-24.43
	c0.2-3.98,0.59-7.95,0.99-11.91c0.62-6.11,1.22-12.23,2.01-18.32c0.88-6.74,1.8-13.49,3.01-20.17c1.11-6.15,2.67-12.23,3.98-18.34
	c1.69-7.94,3.06-15.96,5.07-23.82c1.94-7.62,4.53-15.08,6.81-22.62c2.05-6.79,3.91-13.65,6.17-20.38c1.73-5.15,3.9-10.15,5.94-15.2
	c2.99-7.41,5.96-14.83,9.11-22.18c1.39-3.25,3.29-6.29,4.82-9.49c2.24-4.68,4.08-9.58,6.58-14.11c5.26-9.55,10.64-19.04,16.34-28.33
	c6.36-10.38,12.95-20.63,19.76-30.72c4.59-6.8,9.65-13.29,14.7-19.76c4.45-5.71,9.03-11.35,13.82-16.78
	c7.04-7.97,14.34-15.71,21.5-23.58c2.49-2.73,4.74-5.71,7.37-8.29c5.39-5.28,10.86-10.5,16.51-15.51
	c6.64-5.89,13.31-11.78,20.3-17.23c8.42-6.57,17.14-12.75,25.82-18.98c7.73-5.54,15.51-11.01,23.4-16.31
	c3.93-2.64,8.11-4.92,12.24-7.25c7.39-4.17,14.83-8.24,22.23-12.39c2.4-1.35,0.49-3.44,0.21-4.7c-1.14-5.09-1.5-10.05,0.18-15.02
	c1.21-3.59,2.3-7.27,4.02-10.62c3.75-7.31,10.08-11.63,17.63-14.54c6.31-2.43,12.88-2.47,19.28-1.77
	c5.42,0.59,10.52,2.98,15.11,6.28c3.95,2.84,7.32,6.04,9.44,10.48c0.16,0.34,1.17,0.57,1.64,0.41c6.06-1.98,12.06-4.18,18.16-6.03
	c5.35-1.63,10.82-2.86,16.23-4.31c4.64-1.24,9.23-2.64,13.89-3.8c3.53-0.88,7.15-1.44,10.71-2.21c4.12-0.9,8.21-1.91,12.33-2.8
	c2.22-0.48,4.47-0.81,6.71-1.21c3.49-0.62,6.97-1.28,10.46-1.87c2.44-0.41,4.89-0.8,7.35-1.08c3.47-0.4,6.96-0.63,10.42-1.03
	c5.21-0.61,10.42-1.31,15.63-1.96c0.4-0.05,0.81-0.03,1.22-0.04c20.25-0.33,40.5-0.66,60.75-0.98c2.13-0.03,4.27-0.09,6.41,0.01
	c6.32,0.29,12.65,0.51,18.95,1.01c6.34,0.5,12.68,1.15,18.98,2.02c5.56,0.77,11.05,2,16.6,2.91c4.69,0.77,9.44,1.23,14.11,2.07
	c4.14,0.75,8.22,1.86,12.33,2.77c3.36,0.75,6.76,1.38,10.1,2.19c4.95,1.2,9.87,2.52,14.81,3.79c5.42,1.4,10.88,2.68,16.26,4.22
	c4.43,1.27,8.79,2.8,13.14,4.32c8.15,2.86,16.32,5.66,24.38,8.75c5.32,2.04,10.5,4.47,15.67,6.89
	c11.27,5.26,22.63,10.34,33.69,16.02c8.77,4.5,17.22,9.65,25.67,14.74c8.89,5.35,17.76,10.77,26.38,16.54
	c5.92,3.97,11.4,8.6,17.1,12.92c5.37,4.07,10.78,8.1,16.14,12.19c1.83,1.39,3.62,2.83,5.33,4.36c4.11,3.69,8.24,7.37,12.23,11.19
	c9.71,9.3,19.51,18.51,28.95,28.07c6.54,6.63,12.64,13.7,18.75,20.74c4.22,4.87,8.22,9.94,12.12,15.07
	c3.46,4.54,6.61,9.31,9.97,13.92c2.9,3.98,6.04,7.8,8.82,11.86c3.43,5.03,6.61,10.24,9.88,15.38c3.11,4.9,6.3,9.76,9.26,14.75
	c2.55,4.3,4.9,8.72,7.22,13.16c4.65,8.89,9.52,17.68,13.72,26.78c4.62,10,8.66,20.27,12.82,30.47c2.72,6.66,5.42,13.34,7.74,20.14
	c2.33,6.81,4.17,13.8,6.27,20.69c1.59,5.21,3.45,10.34,4.83,15.6c1.29,4.92,2.02,9.98,3.14,14.94c1.2,5.33,2.64,10.61,3.82,15.94
	c0.57,2.6,0.71,5.28,1.17,7.91c0.53,2.98,1.25,5.94,1.8,8.92c0.46,2.52,0.88,5.05,1.17,7.59c0.41,3.56,0.61,7.14,1.04,10.69
	c0.57,4.7,1.29,9.37,1.93,14.06c0.04,0.3,0.04,0.61,0.05,0.91c0.33,8.65,0.66,17.3,1,25.95c0.32,8.04,0.93,16.08,0.91,24.12
	c-0.02,9.47-0.53,18.93-0.94,28.4c-0.19,4.39-0.57,8.77-0.99,13.14c-0.6,6.11-1.22,12.23-2.02,18.32c-0.87,6.64-1.75,13.3-3,19.87
	c-1.43,7.48-3.34,14.87-4.92,22.32c-1.12,5.27-1.86,10.62-3.1,15.86c-1.03,4.35-2.59,8.57-3.84,12.86
	c-1.41,4.86-2.56,9.81-4.14,14.61c-2.43,7.38-5.13,14.67-7.72,22c-1.75,4.97-3.26,10.04-5.33,14.87
	c-4.04,9.44-8.26,18.81-12.65,28.1c-4.65,9.84-9.35,19.68-14.45,29.29c-3.95,7.45-8.42,14.64-12.9,21.78
	c-3.5,5.58-7.37,10.92-11.09,16.36c-4.33,6.33-8.6,12.72-13.05,18.96c-2.47,3.47-5.27,6.7-7.93,10.03
	c-4.03,5.04-8.06,10.07-12.1,15.09c-0.13,0.16-0.31,0.27-0.45,0.41c-3.73,4.07-7.4,8.19-11.2,12.2
	c-7.64,8.05-15.26,16.13-23.06,24.02c-4.39,4.43-9.07,8.58-13.73,12.74c-4.55,4.06-9.12,8.11-13.89,11.88
	c-6.6,5.22-13.39,10.2-20.12,15.26c-5.32,3.99-10.58,8.06-16.02,11.88c-4.52,3.17-9.23,6.06-13.89,9.02
	c-5.41,3.44-10.81,6.89-16.3,10.19c-3.56,2.14-7.24,4.07-10.92,5.98c-10.88,5.62-21.67,11.47-32.75,16.69
	c-9.32,4.39-18.95,8.13-28.54,11.92c-8.66,3.43-17.39,6.72-26.21,9.72c-6.03,2.05-12.26,3.49-18.4,5.25
	c-5.55,1.59-11.05,3.38-16.64,4.81c-4.86,1.25-9.81,2.11-14.72,3.16c-6.15,1.31-12.29,2.65-18.45,3.93
	c-2.13,0.44-4.28,0.79-6.43,1.06c-3.26,0.4-6.55,0.59-9.81,1.04c-6.66,0.92-13.31,1.95-19.96,2.93c-0.2,0.03-0.4,0.03-0.61,0.04
	c-6.42,0.34-12.83,0.72-19.25,1.02c-10.39,0.49-20.77,0.94-31.16,1.41C956.06,1045.95,956.06,1045.81,956.05,1045.66z M793.61,83.28
	c-0.54,3.5-1.04,6.71-1.53,9.93c-1.57,10.15-7.74,17.09-16.31,21.78c-7.15,3.91-14.76,5.91-23.31,4.27
	c-6-1.15-11.43-2.81-16.23-6.55c-3.38-2.64-5.26-2.58-8.85-0.42c-6.59,3.96-13.26,7.8-19.9,11.69c-3.83,2.25-7.79,4.32-11.47,6.8
	c-7.81,5.24-15.49,10.68-23.19,16.07c-5.67,3.97-11.4,7.86-16.91,12.04c-5.4,4.09-10.66,8.37-15.8,12.78
	c-6.39,5.49-12.84,10.95-18.82,16.86c-9.2,9.09-18.05,18.54-26.99,27.89c-1.99,2.08-3.75,4.39-5.6,6.6
	c-5.18,6.17-10.4,12.32-15.51,18.54c-3.96,4.82-7.99,9.61-11.63,14.67c-4.12,5.74-7.92,11.71-11.71,17.67
	c-6.9,10.86-13.95,21.63-20.42,32.73c-4.84,8.31-9.14,16.97-13.21,25.7c-4.34,9.29-8.14,18.83-12.16,28.27
	c-2.29,5.37-4.92,10.63-6.73,16.16c-3.62,11.08-6.83,22.29-10.11,33.47c-2.41,8.21-4.85,16.43-6.91,24.73
	c-1.36,5.51-2.07,11.18-3.05,16.77c-0.37,2.13-0.65,4.29-1.07,6.41c-0.94,4.8-2.08,9.57-2.9,14.39c-0.83,4.86-1.47,9.77-2,14.67
	c-0.78,7.21-1.48,14.43-2.03,21.66c-0.46,6-0.97,12.03-0.92,18.04c0.1,11.51,0.53,23.02,0.91,34.52c0.27,8.24,0.62,16.47,1.03,24.71
	c0.21,4.18,0.66,8.34,1,12.51c0.02,0.2,0.08,0.39,0.11,0.59c0.62,3.98,1.28,7.96,1.85,11.95c0.42,2.94,0.58,5.92,1.11,8.84
	c0.86,4.82,1.99,9.59,2.89,14.41c0.77,4.15,1.18,8.38,2.11,12.5c1.48,6.56,3.21,13.06,4.91,19.56c1.63,6.22,3.19,12.47,5.08,18.61
	c2.5,8.08,5.12,16.14,8.01,24.09c2.86,7.87,5.97,15.66,9.23,23.37c2.9,6.85,6.01,13.61,9.29,20.28c2.9,5.9,6.06,11.69,9.27,17.43
	c5.23,9.33,10.41,18.7,15.95,27.85c5.64,9.32,11.48,18.53,17.61,27.52c4.72,6.92,9.91,13.54,15.12,20.12
	c4.94,6.24,10.07,12.34,15.32,18.32c4.51,5.14,9.14,10.2,13.99,15.01c8.39,8.32,16.93,16.5,25.56,24.58
	c5.63,5.27,11.52,10.25,17.31,15.35c2.4,2.11,4.75,4.31,7.29,6.24c6.38,4.86,12.81,9.64,19.3,14.36c4.72,3.43,9.47,6.84,14.36,10.01
	c5.62,3.64,11.38,7.06,17.13,10.49c7.11,4.25,14.11,8.73,21.46,12.54c11.4,5.91,22.94,11.57,34.62,16.9
	c8.3,3.79,16.88,6.99,25.43,10.2c7.52,2.83,15.14,5.41,22.78,7.92c5.78,1.9,11.64,3.55,17.48,5.24c5.55,1.61,11.09,3.29,16.71,4.65
	c5.17,1.24,10.44,2.04,15.65,3.13c6.06,1.26,12.06,2.82,18.15,3.89c7.02,1.23,14.09,2.15,21.16,3.03c6.42,0.8,12.86,1.41,19.3,2
	c4.69,0.43,9.4,0.98,14.09,0.94c17.92-0.18,35.84-0.43,53.75-0.98c8.48-0.26,16.94-1.25,25.41-1.92c4.18-0.33,8.36-0.63,12.53-1.05
	c2.56-0.26,5.12-0.63,7.65-1.11c4.83-0.9,9.63-1.97,14.47-2.87c4.18-0.77,8.43-1.18,12.57-2.13c6.31-1.44,12.54-3.23,18.8-4.84
	c6.76-1.74,13.66-3.04,20.26-5.24c11.8-3.95,23.48-8.3,35.11-12.73c8.99-3.42,18.02-6.84,26.72-10.93
	c11.09-5.21,21.92-10.98,32.75-16.72c7.06-3.74,14.06-7.64,20.81-11.9c7.67-4.84,15.06-10.14,22.52-15.31
	c6.67-4.62,13.37-9.19,19.86-14.04c5.42-4.05,10.65-8.36,15.78-12.76c6.24-5.35,12.55-10.66,18.38-16.44
	c9.75-9.67,19.28-19.57,28.63-29.63c6.1-6.57,11.83-13.5,17.52-20.43c4.77-5.81,9.35-11.79,13.83-17.84
	c5.16-6.96,10.39-13.9,15.1-21.16c6.67-10.29,13.24-20.69,19.21-31.4c5.24-9.4,9.82-19.2,14.3-29.01
	c5.36-11.72,10.42-23.58,15.38-35.47c2.13-5.11,3.73-10.44,5.5-15.69c1.95-5.8,3.83-11.63,5.73-17.45c0.78-2.41,1.65-4.81,2.25-7.27
	c1.14-4.65,2.04-9.35,3.18-14c1.54-6.24,3.36-12.42,4.8-18.68c1.21-5.25,2.12-10.58,3.02-15.9c1.09-6.4,2.11-12.82,3-19.25
	c0.79-5.69,1.39-11.41,1.99-17.13c0.42-4.06,0.82-8.12,1.02-12.2c0.4-8.35,0.94-16.71,0.91-25.06c-0.04-11.31-0.59-22.61-0.88-33.92
	c-0.08-2.95,0.23-5.92-0.06-8.84c-0.49-5-1.43-9.96-1.96-14.96c-0.48-4.47-0.61-8.98-1.01-13.46c-0.24-2.75-0.6-5.5-1.08-8.22
	c-0.91-5.21-1.99-10.39-2.92-15.6c-0.75-4.17-1.27-8.38-2.1-12.53c-0.83-4.11-1.94-8.16-2.89-12.24c-1.08-4.67-1.98-9.38-3.22-14
	c-1.44-5.34-3.17-10.6-4.77-15.89c-1.72-5.68-3.18-11.46-5.2-17.03c-2.68-7.41-5.72-14.7-8.74-21.99c-3.57-8.65-7.01-17.37-11-25.83
	c-4.37-9.24-9.1-18.32-14.06-27.26c-5.37-9.69-10.96-19.28-16.87-28.64c-5.92-9.39-12.17-18.59-18.63-27.61
	c-5.47-7.63-11.37-14.97-17.27-22.28c-4.2-5.2-8.66-10.21-13.14-15.18c-4.79-5.3-9.65-10.54-14.66-15.64
	c-2.74-2.79-5.87-5.18-8.74-7.85c-5.97-5.56-11.85-11.22-17.82-16.78c-2.86-2.66-5.83-5.2-8.79-7.76c-2.11-1.82-4.21-3.68-6.43-5.36
	c-5.05-3.83-10.18-7.54-15.25-11.33c-4.29-3.21-8.41-6.68-12.85-9.67c-5.98-4.03-12.14-7.81-18.34-11.52
	c-11.1-6.64-22.12-13.43-33.47-19.61c-9.37-5.1-19.09-9.57-28.8-14c-6.79-3.1-13.79-5.74-20.76-8.42
	c-6.86-2.64-13.77-5.15-20.72-7.57c-5.83-2.03-11.72-3.87-17.6-5.73c-3.65-1.15-7.31-2.31-11.02-3.24c-4.67-1.18-9.4-2.12-14.1-3.19
	c-5.64-1.28-11.27-2.65-16.93-3.87c-2.32-0.5-4.72-0.64-7.06-1.11c-4.43-0.89-8.81-2.03-13.25-2.83c-4.47-0.81-8.99-1.44-13.5-1.99
	c-6.31-0.77-12.64-1.42-18.97-2.07c-3.78-0.38-7.56-0.75-11.35-0.94c-8.04-0.41-16.09-0.96-24.13-0.97
	c-7.33-0.01-14.65,0.65-21.98,0.93c-9.48,0.37-18.96,0.65-28.44,0.98c-0.3,0.01-0.61,0-0.91,0.04c-4.7,0.66-9.39,1.39-14.09,1.97
	c-3.57,0.44-7.16,0.62-10.73,1.03c-2.55,0.29-5.11,0.65-7.63,1.15c-4.43,0.88-8.82,1.97-13.26,2.82
	c-5.81,1.11-11.71,1.83-17.47,3.16c-7.45,1.72-14.82,3.81-22.19,5.87c-5.37,1.5-10.7,3.17-16.03,4.82
	C804.9,79.7,799.19,81.52,793.61,83.28z"/>
<path class="st1" d="M793.61,83.28c5.58-1.76,11.29-3.59,17.01-5.36c5.33-1.65,10.66-3.32,16.03-4.82
	c7.37-2.06,14.74-4.15,22.19-5.87c5.76-1.33,11.66-2.05,17.47-3.16c4.44-0.85,8.82-1.94,13.26-2.82c2.52-0.5,5.08-0.86,7.63-1.15
	c3.57-0.4,7.17-0.59,10.73-1.03c4.71-0.58,9.4-1.31,14.09-1.97c0.3-0.04,0.61-0.03,0.91-0.04c9.48-0.32,18.96-0.61,28.44-0.98
	c7.33-0.28,14.66-0.94,21.98-0.93c8.04,0.01,16.09,0.56,24.13,0.97c3.79,0.19,7.57,0.56,11.35,0.94c6.33,0.64,12.65,1.3,18.97,2.07
	c4.52,0.55,9.03,1.17,13.5,1.99c4.44,0.81,8.82,1.94,13.25,2.83c2.33,0.47,4.73,0.61,7.06,1.11c5.66,1.22,11.28,2.59,16.93,3.87
	c4.7,1.07,9.43,2.01,14.1,3.19c3.71,0.94,7.37,2.09,11.02,3.24c5.88,1.86,11.77,3.7,17.6,5.73c6.94,2.42,13.85,4.93,20.72,7.57
	c6.97,2.68,13.97,5.33,20.76,8.42c9.71,4.43,19.43,8.9,28.8,14c11.35,6.18,22.37,12.97,33.47,19.61c6.19,3.7,12.35,7.49,18.34,11.52
	c4.44,2.99,8.55,6.45,12.85,9.67c5.07,3.79,10.2,7.5,15.25,11.33c2.22,1.68,4.32,3.53,6.43,5.36c2.95,2.56,5.93,5.1,8.79,7.76
	c5.97,5.56,11.85,11.22,17.82,16.78c2.86,2.67,6,5.06,8.74,7.85c5,5.1,9.87,10.33,14.66,15.64c4.48,4.97,8.94,9.98,13.14,15.18
	c5.91,7.31,11.8,14.65,17.27,22.28c6.47,9.02,12.71,18.22,18.63,27.61c5.91,9.37,11.5,18.96,16.87,28.64
	c4.96,8.94,9.69,18.02,14.06,27.26c4,8.45,7.43,17.18,11,25.83c3.01,7.29,6.05,14.58,8.74,21.99c2.02,5.58,3.48,11.35,5.2,17.03
	c1.6,5.29,3.33,10.55,4.77,15.89c1.24,4.62,2.14,9.34,3.22,14c0.95,4.08,2.06,8.13,2.89,12.24c0.84,4.15,1.36,8.36,2.1,12.53
	c0.93,5.21,2.01,10.39,2.92,15.6c0.48,2.72,0.83,5.47,1.08,8.22c0.4,4.48,0.53,8.99,1.01,13.46c0.54,5,1.47,9.96,1.96,14.96
	c0.29,2.92-0.02,5.9,0.06,8.84c0.29,11.31,0.84,22.61,0.88,33.92c0.03,8.35-0.51,16.71-0.91,25.06c-0.2,4.07-0.59,8.14-1.02,12.2
	c-0.6,5.72-1.2,11.43-1.99,17.13c-0.89,6.43-1.91,12.85-3,19.25c-0.9,5.32-1.81,10.64-3.02,15.9c-1.44,6.26-3.26,12.44-4.8,18.68
	c-1.15,4.64-2.04,9.35-3.18,14c-0.6,2.46-1.47,4.86-2.25,7.27c-1.89,5.82-3.77,11.65-5.73,17.45c-1.77,5.25-3.37,10.59-5.5,15.69
	c-4.96,11.89-10.02,23.75-15.38,35.47c-4.48,9.8-9.06,19.6-14.3,29.01c-5.97,10.71-12.54,21.1-19.21,31.4
	c-4.71,7.26-9.94,14.2-15.1,21.16c-4.48,6.04-9.06,12.02-13.83,17.84c-5.69,6.93-11.42,13.86-17.52,20.43
	c-9.35,10.06-18.88,19.96-28.63,29.63c-5.83,5.78-12.14,11.09-18.38,16.44c-5.14,4.4-10.37,8.71-15.78,12.76
	c-6.49,4.85-13.2,9.42-19.86,14.04c-7.46,5.17-14.85,10.46-22.52,15.31c-6.75,4.26-13.76,8.16-20.81,11.9
	c-10.83,5.74-21.66,11.51-32.75,16.72c-8.7,4.09-17.73,7.51-26.72,10.93c-11.64,4.42-23.31,8.78-35.11,12.73
	c-6.6,2.21-13.5,3.51-20.26,5.24c-6.27,1.61-12.5,3.39-18.8,4.84c-4.14,0.95-8.39,1.36-12.57,2.13c-4.83,0.89-9.64,1.96-14.47,2.87
	c-2.53,0.47-5.09,0.85-7.65,1.11c-4.17,0.42-8.35,0.72-12.53,1.05c-8.47,0.67-16.93,1.66-25.41,1.92
	c-17.91,0.55-35.83,0.8-53.75,0.98c-4.69,0.05-9.4-0.51-14.09-0.94c-6.44-0.58-12.88-1.2-19.3-2c-7.07-0.88-14.15-1.8-21.16-3.03
	c-6.09-1.07-12.09-2.63-18.15-3.89c-5.21-1.09-10.48-1.88-15.65-3.13c-5.62-1.35-11.16-3.04-16.71-4.65
	c-5.84-1.69-11.71-3.34-17.48-5.24c-7.64-2.51-15.26-5.09-22.78-7.92c-8.55-3.22-17.13-6.42-25.43-10.2
	c-11.68-5.33-23.23-10.99-34.62-16.9c-7.35-3.81-14.35-8.29-21.46-12.54c-5.75-3.43-11.51-6.85-17.13-10.49
	c-4.89-3.17-9.64-6.58-14.36-10.01c-6.48-4.72-12.92-9.5-19.3-14.36c-2.54-1.94-4.89-4.13-7.29-6.24
	c-5.79-5.09-11.69-10.08-17.31-15.35c-8.63-8.07-17.16-16.26-25.56-24.58c-4.86-4.81-9.49-9.87-13.99-15.01
	c-5.25-5.99-10.37-12.08-15.32-18.32c-5.21-6.58-10.4-13.19-15.12-20.12c-6.13-9-11.98-18.21-17.61-27.52
	c-5.54-9.15-10.72-18.51-15.95-27.85c-3.22-5.74-6.37-11.52-9.27-17.43c-3.28-6.67-6.39-13.44-9.29-20.28
	c-3.26-7.71-6.38-15.5-9.23-23.37c-2.89-7.95-5.51-16.01-8.01-24.09c-1.9-6.14-3.45-12.39-5.08-18.61c-1.7-6.5-3.44-13-4.91-19.56
	c-0.93-4.12-1.34-8.35-2.11-12.5c-0.9-4.81-2.02-9.59-2.89-14.41c-0.52-2.92-0.69-5.9-1.11-8.84c-0.57-3.99-1.23-7.97-1.85-11.95
	c-0.03-0.2-0.1-0.39-0.11-0.59c-0.34-4.17-0.79-8.34-1-12.51c-0.42-8.23-0.76-16.47-1.03-24.71c-0.38-11.51-0.81-23.01-0.91-34.52
	c-0.05-6.01,0.46-12.04,0.92-18.04c0.56-7.23,1.25-14.45,2.03-21.66c0.53-4.91,1.17-9.81,2-14.67c0.82-4.82,1.95-9.59,2.9-14.39
	c0.42-2.12,0.69-4.28,1.07-6.41c0.98-5.6,1.69-11.27,3.05-16.77c2.05-8.31,4.5-16.52,6.91-24.73c3.28-11.18,6.49-22.4,10.11-33.47
	c1.81-5.53,4.45-10.79,6.73-16.16c4.02-9.44,7.82-18.98,12.16-28.27c4.07-8.72,8.37-17.39,13.21-25.7
	c6.47-11.11,13.53-21.88,20.42-32.73c3.79-5.97,7.59-11.94,11.71-17.67c3.64-5.06,7.66-9.85,11.63-14.67
	c5.12-6.23,10.33-12.37,15.51-18.54c1.85-2.21,3.61-4.52,5.6-6.6c8.94-9.35,17.79-18.8,26.99-27.89
	c5.98-5.92,12.43-11.38,18.82-16.86c5.14-4.41,10.4-8.69,15.8-12.78c5.52-4.18,11.24-8.07,16.91-12.04
	c7.7-5.39,15.38-10.83,23.19-16.07c3.68-2.47,7.64-4.55,11.47-6.8c6.64-3.89,13.31-7.73,19.9-11.69c3.59-2.16,5.47-2.21,8.85,0.42
	c4.8,3.74,10.23,5.4,16.23,6.55c8.55,1.65,16.16-0.36,23.31-4.27c8.57-4.69,14.74-11.62,16.31-21.78
	C792.58,90,793.07,86.78,793.61,83.28z M565.19,726.5c-0.72,5.24,1.72,9.78,5.06,13.76c4.23,5.04,9.9,7.42,16.52,7.61
	c0.89,0.03,2.04,0.84,2.56,1.62c1.52,2.28,2.68,4.8,4.16,7.11c4.48,6.94,8.99,13.86,13.59,20.72c4.87,7.26,9.73,14.53,14.86,21.61
	c3.72,5.13,7.73,10.07,11.84,14.89c5.33,6.25,10.65,12.53,16.41,18.37c8.95,9.06,18.15,17.89,27.5,26.53
	c5.18,4.78,10.89,8.98,16.36,13.45c3.78,3.09,7.4,6.4,11.35,9.26c6.15,4.46,12.44,8.73,18.81,12.88
	c7.53,4.91,15.07,9.81,22.83,14.34c6.56,3.83,13.38,7.24,20.18,10.64c8.49,4.23,16.9,8.67,25.66,12.26
	c10.61,4.35,21.52,7.98,32.35,11.77c5.55,1.94,11.16,3.74,16.82,5.31c5.77,1.6,11.65,2.81,17.47,4.25
	c5.04,1.24,10.03,2.76,15.11,3.78c4.75,0.96,9.61,1.33,14.4,2.13c5.24,0.88,10.42,2.16,15.68,2.89c6.3,0.88,12.66,1.43,19,2.01
	c4.78,0.44,9.58,1.03,14.37,0.98c18.11-0.19,36.22-0.62,54.34-0.96c0.2,0,0.41,0,0.61-0.03c4.5-0.65,9-1.37,13.52-1.92
	c3.76-0.46,7.55-0.66,11.31-1.09c2.25-0.26,4.49-0.72,6.72-1.16c4.53-0.9,9.05-1.86,13.58-2.78c3.86-0.78,7.76-1.38,11.56-2.36
	c5.51-1.41,10.96-3.05,16.42-4.64c7.25-2.11,14.55-4.07,21.71-6.46c6.7-2.24,13.25-4.93,19.84-7.47c7.51-2.89,15.13-5.53,22.46-8.83
	c16.17-7.27,31.23-16.53,46.29-25.88c10.1-6.27,19.88-12.95,29.46-19.93c6.58-4.79,12.95-9.91,19.17-15.17
	c6.66-5.64,13.25-11.39,19.48-17.49c7.06-6.91,13.71-14.25,20.49-21.45c3.44-3.65,6.81-7.36,10.15-11.1
	c1.92-2.15,3.76-4.38,5.53-6.66c2.89-3.75,5.65-7.59,8.52-11.36c2.46-3.23,5.23-6.24,7.46-9.62c5.29-8.03,10.43-16.17,15.47-24.36
	c4.37-7.1,8.79-14.2,12.73-21.55c7.69-14.34,14.66-29.04,20.26-44.35c2.1-5.75,4.77-11.32,6.61-17.15
	c2.96-9.37,5.51-18.87,8.11-28.35c2.09-7.6,4.24-15.19,5.91-22.88c1.37-6.34,2.1-12.82,3.07-19.24c0.39-2.55,0.66-5.11,1-7.66
	c0.66-4.99,1.34-9.97,1.99-14.96c0.08-0.6-0.04-1.22,0.02-1.83c0.65-6.32,1.96-12.64,1.86-18.94c-0.26-16.78,1.28-33.59-0.83-50.35
	c-0.75-5.96-0.71-12.01-1.04-18.03c-0.02-0.3,0.01-0.61-0.04-0.91c-0.98-5.91-2.01-11.82-2.94-17.74
	c-0.75-4.77-1.19-9.59-2.14-14.32c-1.07-5.36-2.61-10.62-3.86-15.94c-1.43-6.08-2.51-12.25-4.19-18.26
	c-1.65-5.89-3.81-11.63-5.83-17.41c-3.38-9.65-6.7-19.32-10.3-28.88c-2.03-5.39-4.36-10.7-6.94-15.86c-4.01-8-8.16-15.94-12.6-23.7
	c-5.8-10.13-11.63-20.27-18.04-30.02c-6.92-10.52-14.35-20.73-21.89-30.82c-4.7-6.29-9.9-12.23-15.09-18.14
	c-4.72-5.37-9.63-10.59-14.66-15.67c-3.45-3.49-7.26-6.63-10.88-9.97c-5.11-4.71-10.05-9.61-15.3-14.16
	c-4.26-3.7-8.89-6.97-13.31-10.48c-3.74-2.98-7.26-6.26-11.17-9.01c-6.78-4.77-13.68-9.38-20.71-13.78
	c-9.62-6.01-19.25-12.03-29.17-17.51c-7.68-4.25-15.73-7.85-23.75-11.43c-8.53-3.82-17.12-7.54-25.86-10.82
	c-8.71-3.27-17.59-6.1-26.48-8.83c-9.18-2.82-18.41-5.47-27.71-7.88c-6.28-1.63-12.68-2.84-19.07-4
	c-6.42-1.17-12.87-2.17-19.34-3.02c-6.41-0.84-12.85-1.45-19.28-2.07c-4.38-0.42-8.79-0.97-13.18-0.93
	c-19.75,0.2-39.5,0.59-59.25,0.91c-0.3,0-0.61,0.03-0.91,0.07c-4.9,0.65-9.8,1.36-14.7,1.96c-3.37,0.41-6.79,0.46-10.12,1.06
	c-6.48,1.17-12.92,2.58-19.36,3.94c-7.69,1.63-15.39,3.23-23.05,5.01c-5.45,1.26-10.93,2.49-16.23,4.25
	c-9.12,3.01-18.16,6.28-27.13,9.71c-8.89,3.4-17.88,6.69-26.43,10.84c-12.8,6.2-25.31,12.99-37.82,19.76
	c-5.45,2.95-10.63,6.41-15.84,9.78c-3.73,2.41-7.3,5.09-10.96,7.61c-3.81,2.63-7.77,5.08-11.46,7.87
	c-6.33,4.78-12.65,9.6-18.7,14.73c-6.82,5.77-13.54,11.69-19.93,17.93c-6.92,6.76-13.43,13.95-20.07,21
	c-3.79,4.02-7.51,8.11-11.2,12.22c-1.59,1.77-3.09,3.64-4.55,5.53c-3.19,4.14-6.34,8.33-9.5,12.5c-3.22,4.25-6.62,8.37-9.59,12.78
	c-4.05,6.02-7.8,12.24-11.62,18.4c-3.87,6.26-7.88,12.45-11.45,18.88c-3.29,5.92-6.23,12.06-9.08,18.22
	c-4.43,9.58-8.72,19.23-12.95,28.91c-2.15,4.91-4.32,9.84-5.97,14.93c-2.93,9.07-5.5,18.26-8.14,27.42
	c-1.7,5.89-3.43,11.78-4.88,17.74c-1.52,6.27-2.82,12.59-4.02,18.93c-1.15,6.09-2.14,12.2-3.01,18.34c-0.8,5.68-1.41,11.4-2,17.11
	c-0.42,4.07-0.81,8.14-0.99,12.22c-0.41,8.86-0.79,17.72-0.95,26.58c-0.05,2.95,0.74,5.91,0.89,8.87c0.42,8.24,0.55,16.5,1.08,24.73
	c0.44,6.84,1.2,13.66,1.98,20.47c0.52,4.59,1.3,9.16,2,13.73c0.99,6.52,1.99,13.03,3.02,19.55c0.31,1.95,0.65,3.89,1.12,5.81
	c0.89,3.67,1.9,7.32,2.83,10.99c0.77,3.03,1.37,6.11,2.26,9.1c1.5,5.02,3.16,10,4.77,14.98c2.06,6.37,3.94,12.82,6.29,19.08
	c2.26,6.01,5.1,11.8,7.47,17.78c0.4,1,0.08,2.68-0.55,3.61C566.7,716.95,564.81,721.19,565.19,726.5z M1432.26,602.06
	c-0.21-0.41-0.42-0.81-0.63-1.22c-1.48,0-2.98-0.11-4.45,0.02c-2.76,0.25-5.51,0.66-8.26,0.98c-2.07,0.23-4.14,0.52-6.21,0.56
	c-0.59,0.01-1.48-0.62-1.75-1.18c-1.64-3.44-3.17-6.94-4.69-10.43c-0.86-1.98-1.64-4-2.46-6.01c-0.39,0.04-0.78,0.08-1.17,0.12
	c-1.41,5.9-2.82,11.8-4.28,17.92c-6.46,0.72-12.9,1.43-19.33,2.15c-0.09,0.29-0.19,0.59-0.28,0.88c3.72,2.34,7.35,4.87,11.2,6.99
	c4.9,2.7,4.98,2.56,3.84,8.09c-0.08,0.39,0.06,0.83-0.03,1.21c-0.51,2.28-1.23,4.52-1.54,6.83c-0.25,1.87-1.76,3.86-0.11,5.84
	c4.66-3.88,9.07-7.6,13.57-11.2c0.48-0.38,1.67-0.36,2.26-0.04c5.52,2.98,10.99,6.07,16.47,9.12c0.27-0.16,0.53-0.32,0.8-0.48
	c-2.7-6.05-5.41-12.1-8.06-18.03C1422.2,610.14,1427.23,606.1,1432.26,602.06z M522.66,567.92c-5.39,0-10.05-0.29-14.64,0.16
	c-1.67,0.16-2.21,0.13-2.84-1.32c-1.56-3.59-3.25-7.13-4.93-10.67c-0.22-0.46-0.66-0.85-1.09-1.14c-0.12-0.08-0.77,0.32-0.85,0.59
	c-0.43,1.61-0.71,3.25-1.12,4.86c-0.6,2.36-1.2,4.72-1.96,7.03c-0.19,0.58-0.94,1.3-1.51,1.37c-3.66,0.43-7.35,0.7-11.02,1.03
	c-0.84,0.08-1.67,0.19-3.01,0.34c0.71,1.04,0.96,1.76,1.47,2.1c2.78,1.86,5.44,4.09,8.49,5.31c2.95,1.18,2.9,3.22,2.49,5.34
	c-0.7,3.64-1.84,7.2-2.79,10.8c0.27,0.21,0.54,0.42,0.8,0.63c3.38-2.67,6.82-5.28,10.12-8.05c1.17-0.98,1.89-1.81,3.53-0.56
	c2.26,1.71,4.79,3.09,7.29,4.46c1.5,0.82,3.16,1.35,4.74,2.01c0.17-0.29,0.33-0.59,0.5-0.88c-1.92-4.35-3.83-8.69-5.87-13.31
	C514.26,574.85,518.16,571.63,522.66,567.92z M1112.19,101.85c-0.11-0.3-0.23-0.59-0.34-0.89c-1.67,0.22-3.33,0.54-5.01,0.64
	c-3.31,0.2-6.62,0.31-9.93,0.34c-0.32,0-0.73-0.79-0.97-1.28c-1.88-3.84-3.74-7.69-5.96-12.29c-3.36,4.56-2.53,9.96-4.56,14.38
	c-4.98,0.51-10.08,1.04-15.19,1.57c-0.21,0.26-0.43,0.52-0.64,0.78c0.84,0.53,1.68,1.08,2.53,1.59c3.04,1.82,6.16,3.52,9.07,5.52
	c0.87,0.6,1.7,2.1,1.6,3.09c-0.18,1.79-1.24,3.46-1.63,5.25c-0.53,2.41-0.78,4.88-1.26,8c1.25-0.68,1.88-0.9,2.36-1.31
	c2.81-2.41,5.52-4.93,8.4-7.24c0.72-0.57,2.14-0.93,2.93-0.61c1.82,0.72,3.43,1.95,5.15,2.92c2.49,1.41,4.99,2.78,7.49,4.17
	c0.25-0.29,0.5-0.58,0.76-0.87c-1.82-3.85-3.54-7.76-5.5-11.54c-0.92-1.77-0.42-2.8,0.96-3.85c2.83-2.16,5.65-4.35,8.42-6.59
	C1111.42,103.18,1111.75,102.45,1112.19,101.85z M1018.77,79.87c-0.33,0.19-0.66,0.38-0.99,0.57c0.54,2.86,1.19,5.7,1.56,8.58
	c0.12,0.91-0.19,2.36-0.82,2.8c-2.26,1.55-4.76,2.75-7.14,4.13c-0.53,0.31-0.95,0.8-1.42,1.21c0.65,0.31,1.27,0.79,1.95,0.9
	c2.64,0.41,5.34,0.55,7.94,1.13c0.83,0.18,1.84,1.3,2.04,2.16c0.56,2.38,0.71,4.86,1.1,7.29c0.08,0.49,0.52,0.92,0.8,1.38
	c0.41-0.33,0.95-0.58,1.2-1c1.4-2.36,2.57-4.88,4.17-7.08c0.65-0.9,2.22-1.64,3.34-1.6c3.1,0.12,6.19,0.69,9.28,1.08
	c0.11-0.35,0.22-0.7,0.33-1.05c-1.47-1.13-2.85-2.41-4.42-3.36c-3.6-2.18-4.22-4.06-2.29-7.77c0.72-1.39,1.54-2.75,2.11-4.21
	c0.34-0.88,0.28-1.91,0.44-3.2c-3.26,1.67-6.06,2.88-8.62,4.49c-1.8,1.13-2.89,0.68-4.21-0.61
	C1023.06,83.7,1020.89,81.81,1018.77,79.87z"/>
<path class="st0" d="M565.19,726.5c-0.38-5.31,1.51-9.54,4.24-13.58c0.63-0.93,0.94-2.61,0.55-3.61
	c-2.37-5.97-5.21-11.76-7.47-17.78c-2.35-6.27-4.23-12.71-6.29-19.08c-1.62-4.99-3.27-9.96-4.77-14.98c-0.89-2.99-1.5-6.07-2.26-9.1
	c-0.93-3.67-1.93-7.31-2.83-10.99c-0.46-1.91-0.81-3.86-1.12-5.81c-1.03-6.51-2.03-13.03-3.02-19.55c-0.69-4.57-1.47-9.14-2-13.73
	c-0.78-6.81-1.54-13.63-1.98-20.47c-0.53-8.23-0.66-16.49-1.08-24.73c-0.15-2.97-0.95-5.92-0.89-8.87
	c0.16-8.86,0.54-17.72,0.95-26.58c0.19-4.08,0.57-8.16,0.99-12.22c0.59-5.71,1.2-11.42,2-17.11c0.87-6.13,1.86-12.25,3.01-18.34
	c1.19-6.34,2.5-12.66,4.02-18.93c1.44-5.96,3.17-11.85,4.88-17.74c2.65-9.16,5.22-18.35,8.14-27.42c1.64-5.09,3.82-10.02,5.97-14.93
	c4.23-9.68,8.52-19.33,12.95-28.91c2.85-6.16,5.79-12.29,9.08-18.22c3.57-6.43,7.58-12.62,11.45-18.88
	c3.82-6.17,7.57-12.39,11.62-18.4c2.97-4.41,6.37-8.53,9.59-12.78c3.16-4.17,6.3-8.35,9.5-12.5c1.46-1.89,2.95-3.76,4.55-5.53
	c3.69-4.11,7.41-8.2,11.2-12.22c6.64-7.05,13.15-14.23,20.07-21c6.39-6.24,13.11-12.16,19.93-17.93c6.05-5.12,12.37-9.94,18.7-14.73
	c3.69-2.79,7.64-5.24,11.46-7.87c3.66-2.53,7.23-5.2,10.96-7.61c5.21-3.37,10.39-6.83,15.84-9.78
	c12.51-6.77,25.03-13.56,37.82-19.76c8.55-4.14,17.54-7.44,26.43-10.84c8.97-3.43,18.01-6.69,27.13-9.71
	c5.3-1.75,10.78-2.99,16.23-4.25c7.66-1.77,15.36-3.38,23.05-5.01c6.44-1.36,12.88-2.77,19.36-3.94c3.33-0.6,6.75-0.65,10.12-1.06
	c4.91-0.6,9.8-1.3,14.7-1.96c0.3-0.04,0.61-0.06,0.91-0.07c19.75-0.32,39.5-0.71,59.25-0.91c4.39-0.04,8.8,0.51,13.18,0.93
	c6.43,0.61,12.87,1.23,19.28,2.07c6.47,0.85,12.92,1.85,19.34,3.02c6.39,1.16,12.79,2.37,19.07,4c9.29,2.41,18.53,5.06,27.71,7.88
	c8.89,2.74,17.78,5.56,26.48,8.83c8.74,3.28,17.33,7.01,25.86,10.82c8.02,3.59,16.07,7.19,23.75,11.43
	c9.92,5.49,19.55,11.5,29.17,17.51c7.03,4.39,13.93,9.01,20.71,13.78c3.9,2.74,7.42,6.03,11.17,9.01
	c4.42,3.52,9.05,6.79,13.31,10.48c5.25,4.55,10.19,9.45,15.3,14.16c3.61,3.34,7.43,6.47,10.88,9.97c5.03,5.09,9.94,10.3,14.66,15.67
	c5.19,5.91,10.39,11.84,15.09,18.14c7.54,10.1,14.97,20.3,21.89,30.82c6.41,9.75,12.24,19.89,18.04,30.02
	c4.44,7.76,8.59,15.7,12.6,23.7c2.58,5.15,4.91,10.46,6.94,15.86c3.6,9.56,6.92,19.23,10.3,28.88c2.02,5.78,4.19,11.52,5.83,17.41
	c1.68,6.01,2.77,12.18,4.19,18.26c1.25,5.32,2.78,10.58,3.86,15.94c0.95,4.73,1.39,9.55,2.14,14.32c0.93,5.92,1.96,11.83,2.94,17.74
	c0.05,0.3,0.03,0.61,0.04,0.91c0.32,6.01,0.29,12.07,1.04,18.03c2.11,16.77,0.57,33.57,0.83,50.35c0.1,6.3-1.21,12.63-1.86,18.94
	c-0.06,0.6,0.06,1.23-0.02,1.83c-0.65,4.99-1.33,9.97-1.99,14.96c-0.34,2.55-0.61,5.11-1,7.66c-0.97,6.42-1.7,12.9-3.07,19.24
	c-1.67,7.69-3.82,15.28-5.91,22.88c-2.6,9.48-5.15,18.98-8.11,28.35c-1.84,5.83-4.51,11.4-6.61,17.15
	c-5.6,15.32-12.57,30.01-20.26,44.35c-3.94,7.35-8.36,14.44-12.73,21.55c-5.04,8.19-10.18,16.33-15.47,24.36
	c-2.23,3.38-5,6.39-7.46,9.62c-2.87,3.76-5.64,7.61-8.52,11.36c-1.76,2.28-3.61,4.51-5.53,6.66c-3.34,3.74-6.71,7.45-10.15,11.1
	c-6.78,7.2-13.43,14.53-20.49,21.45c-6.23,6.1-12.82,11.86-19.48,17.49c-6.22,5.26-12.59,10.38-19.17,15.17
	c-9.58,6.98-19.36,13.65-29.46,19.93c-15.06,9.35-30.12,18.61-46.29,25.88c-7.33,3.3-14.95,5.93-22.46,8.83
	c-6.59,2.54-13.14,5.23-19.84,7.47c-7.16,2.39-14.46,4.35-21.71,6.46c-5.46,1.59-10.91,3.23-16.42,4.64
	c-3.81,0.97-7.71,1.57-11.56,2.36c-4.53,0.92-9.05,1.88-13.58,2.78c-2.23,0.44-4.46,0.9-6.72,1.16c-3.76,0.44-7.55,0.63-11.31,1.09
	c-4.52,0.55-9.01,1.28-13.52,1.92c-0.2,0.03-0.41,0.03-0.61,0.03c-18.11,0.34-36.22,0.77-54.34,0.96
	c-4.79,0.05-9.59-0.54-14.37-0.98c-6.34-0.58-12.7-1.13-19-2.01c-5.26-0.74-10.44-2.02-15.68-2.89c-4.79-0.8-9.65-1.17-14.4-2.13
	c-5.08-1.02-10.07-2.54-15.11-3.78c-5.82-1.43-11.7-2.65-17.47-4.25c-5.66-1.57-11.28-3.36-16.82-5.31
	c-10.83-3.8-21.74-7.42-32.35-11.77c-8.76-3.59-17.18-8.03-25.66-12.26c-6.8-3.39-13.62-6.81-20.18-10.64
	c-7.76-4.53-15.3-9.43-22.83-14.34c-6.36-4.15-12.66-8.42-18.81-12.88c-3.95-2.86-7.57-6.17-11.35-9.26
	c-5.46-4.47-11.18-8.67-16.36-13.45c-9.35-8.64-18.55-17.47-27.5-26.53c-5.77-5.83-11.08-12.12-16.41-18.37
	c-4.12-4.82-8.12-9.76-11.84-14.89c-5.12-7.08-9.98-14.35-14.86-21.61c-4.6-6.86-9.11-13.78-13.59-20.72
	c-1.49-2.31-2.64-4.83-4.16-7.11c-0.52-0.79-1.67-1.6-2.56-1.62c-6.62-0.19-12.29-2.57-16.52-7.61
	C566.91,736.28,564.47,731.73,565.19,726.5z M1030.82,851.4c4.63-0.99,8.57-1.82,12.5-2.68c4.71-1.03,9.58-1.61,14.09-3.21
	c11.38-4.03,22.7-8.17,33.37-14c12.65-6.91,25.79-12.9,37.47-21.52c9.23-6.82,18.85-13.12,27.92-20.13
	c6.48-5.01,12.47-10.7,18.43-16.34c3.56-3.37,6.68-7.22,9.96-10.88c5.61-6.26,11.26-12.49,16.78-18.83
	c2.93-3.37,5.77-6.83,8.37-10.46c3.42-4.79,6.64-9.73,9.8-14.7c4.2-6.62,8.61-13.15,12.31-20.05c7.1-13.22,13.83-26.65,19.03-40.77
	c2.05-5.57,4.1-11.14,6-16.76c1.43-4.23,2.72-8.52,3.9-12.83c1.15-4.24,2.14-8.53,3.09-12.82c0.8-3.63,1.49-7.3,2.14-10.96
	c1.01-5.7,2.04-11.4,2.88-17.13c0.51-3.45,0.63-6.95,1-10.41c0.63-5.8,1.86-11.6,1.89-17.4c0.05-11.5-0.49-23-0.9-34.5
	c-0.2-5.7-0.6-11.39-1.02-17.08c-0.2-2.77-0.53-5.54-1.02-8.28c-0.89-4.91-1.91-9.79-2.94-14.67c-0.86-4.1-1.74-8.2-2.74-12.27
	c-1-4.07-2.13-8.12-3.26-12.16c-1.47-5.23-2.87-10.49-4.55-15.65c-1.66-5.08-3.51-10.1-5.5-15.05c-1.46-3.63-3.22-7.15-4.98-10.65
	c-0.29-0.58-1.31-1.18-1.96-1.14c-2.98,0.17-5.96,0.93-8.91,0.78c-5.56-0.29-10.52-2.35-14.81-6.06c-4.47-3.87-7.84-8.53-8.95-14.26
	c-0.71-3.67-0.63-7.75,0.18-11.4c1.3-5.81,4.53-10.74,9.67-14.55c-27.11-40.75-61.3-73.77-103.01-98.91
	c-41.2-24.83-86.05-39.08-133.78-43.46c-48.31-4.44-95.44,2.19-140.68,19.89c-71.99,28.15-127.15,76.14-164.54,143.72
	c-35.4,63.98-46.66,132.71-34.7,204.7c11.26,67.8,42.04,126.11,91.27,174.02c49.49,48.16,109.05,76.62,177.53,86.77
	c-5.08-13.07-10.12-26.01-15.16-38.95c1.51-0.81,2.83-1.76,4.31-2.23c0.78-0.25,2.32,0.03,2.69,0.61c3.1,4.77,6.09,9.62,8.96,14.53
	c5.06,8.65,10.23,17.23,14.95,26.06c4.61,8.63,9.81,16.78,15.62,24.68c4.77,6.48,9.73,12.66,15.53,18.18
	c3.05,2.91,6.73,4.82,10.95,5.54c4.93,0.84,8.73-1.47,12.1-4.61c6.52-6.09,12.48-12.68,17.29-20.25c4.69-7.38,9.5-14.69,14.09-22.13
	c2.16-3.51,3.86-7.3,5.92-10.87c4.81-8.33,9.78-16.57,14.55-24.93c1.89-3.31,7.11-5.8,10.12-4.36
	C1039.78,830.5,1035.52,840.44,1030.82,851.4z M859.12,933.03c0.01-0.12,0.02-0.23,0.03-0.35c3.25,0,6.55,0.35,9.75-0.08
	c5.26-0.7,10.42-2.34,15.69-2.8c6.77-0.58,12.78-3.27,18.72-6c5-2.29,9.63-5.36,12.65-10.43c3.17-5.32,5.48-10.83,6.04-17.02
	c0.56-6.3-1.41-12.08-3.67-17.8c-1.77-4.49-2.28-4.79-7.2-4.81c-1.21-0.01-2.45,0.03-3.64-0.17c-3.39-0.56-6.75-1.27-10.14-1.84
	c-2.55-0.43-5.15-0.59-7.66-1.13c-3.83-0.83-7.6-1.92-11.41-2.83c-4.59-1.11-9.27-1.91-13.77-3.28c-5.53-1.67-10.96-3.69-16.37-5.74
	c-10.18-3.87-20.47-7.51-30.42-11.92c-8.48-3.76-16.6-8.34-24.77-12.77c-5.73-3.1-11.45-6.28-16.84-9.93
	c-7.55-5.1-14.95-10.45-22.11-16.08c-8.15-6.4-16.33-12.84-23.84-19.95c-10.96-10.38-21.83-20.9-31.12-32.9
	c-3.1-4-6.66-7.67-9.61-11.77c-4.13-5.74-8.04-11.66-11.79-17.67c-4.98-8-10.17-15.92-14.43-24.3c-5.77-11.33-10.83-23.03-16-34.66
	c-1.97-4.44-3.46-9.09-5.05-13.69c-1.68-4.86-3.35-9.74-4.79-14.68c-1.25-4.31-2.18-8.71-3.25-13.07c-0.77-3.13-1.59-6.25-2.3-9.39
	c-0.94-4.19-1.93-8.37-2.65-12.6c-0.54-3.13-0.64-6.33-1.03-9.49c-0.63-5.19-1.35-10.37-2.01-15.55c-0.06-0.5,0.02-1.02-0.04-1.52
	c-0.64-6.12-1.83-12.23-1.84-18.34c-0.03-12.61,0.52-25.22,0.94-37.83c0.15-4.5,0.61-8.98,0.94-13.47c0.01-0.2,0.05-0.4,0.08-0.6
	c0.65-3.86,1.36-7.72,1.95-11.6c0.42-2.75,0.5-5.55,1.05-8.27c0.83-4.11,2.01-8.15,2.92-12.25c1.1-4.97,1.73-10.06,3.17-14.92
	c2.32-7.82,5.02-15.54,7.76-23.23c3.01-8.44,5.65-17.09,9.51-25.14c5.64-11.77,11.97-23.23,18.47-34.56
	c4.49-7.82,9.62-15.29,14.73-22.73c4.47-6.5,9.15-12.86,14.05-19.04c4.28-5.39,8.76-10.66,13.56-15.59
	c5.77-5.92,11.91-11.48,18.02-17.06c5.4-4.93,10.94-9.72,16.49-14.48c3.4-2.91,6.82-5.84,10.47-8.42c5.8-4.09,11.73-8.02,17.74-11.8
	c7.42-4.67,14.78-9.52,22.54-13.56c10.33-5.37,20.98-10.12,31.58-14.95c4.9-2.23,9.92-4.29,15.04-5.96
	c6.98-2.28,14.09-4.21,21.19-6.13c8.9-2.4,17.8-4.81,26.78-6.85c5.96-1.35,12.04-2.23,18.1-3.03c6.51-0.86,13.06-1.71,19.62-1.95
	c9-0.33,18.01-0.21,27.02-0.05c9.99,0.18,19.97,0.56,29.96,0.98c3.68,0.15,7.35,0.6,11.02,1.02c2.55,0.29,5.1,0.72,7.63,1.17
	c3.1,0.55,6.18,1.22,9.28,1.77c2.53,0.45,5.12,0.62,7.62,1.2c4.97,1.16,9.89,2.48,14.82,3.79c5.58,1.48,11.21,2.86,16.71,4.59
	c5.05,1.59,10.01,3.5,14.94,5.43c8.14,3.18,16.36,6.19,24.29,9.84c7.98,3.68,15.8,7.78,23.39,12.2
	c8.96,5.22,17.74,10.78,26.35,16.57c7.54,5.07,14.93,10.4,22.02,16.08c6.56,5.27,12.84,10.95,18.86,16.83
	c6.56,6.4,12.72,13.21,18.99,19.9c2.39,2.55,4.73,5.15,6.86,7.91c3.85,5,7.53,10.13,11.27,15.21c2.98,4.05,6.16,7.98,8.82,12.23
	c1.99,3.17,3.6,5.68,8.15,5.38c2.94-0.19,6.11,1.26,8.99,2.43c4.15,1.68,7.89,4.15,10.17,8.17c1.77,3.12,4.25,6.33,4.58,9.67
	c0.72,7.18,1.04,14.62-4.37,20.71c-0.58,0.65-0.6,2.27-0.24,3.18c2.1,5.35,4.52,10.58,6.57,15.95c2.22,5.8,4.27,11.68,6.2,17.59
	c1.24,3.79,2.12,7.7,3.16,11.56c1.3,4.79,2.7,9.55,3.87,14.37c0.84,3.42,1.38,6.91,2.05,10.38c1.32,6.84,2.79,13.65,3.89,20.52
	c0.93,5.86,1.57,11.77,2.05,17.69c0.51,6.2,0.94,12.44,0.93,18.65c-0.01,6.52-0.56,13.05-0.9,19.57c-0.32,6.2-0.54,12.42-1.06,18.6
	c-0.47,5.62-1.15,11.24-1.96,16.82c-0.87,6.03-1.85,12.05-3.03,18.03c-1.17,5.93-2.56,11.83-4,17.7c-1.6,6.53-2.99,13.15-5.16,19.5
	c-3.36,9.86-7.07,19.62-11.08,29.24c-3.01,7.23-6.46,14.32-10.19,21.21c-4.43,8.19-9.3,16.15-14.11,24.13
	c-2.89,4.79-5.86,9.54-9.11,14.08c-3.45,4.82-7.23,9.42-10.96,14.03c-4.62,5.72-8.95,11.75-14.09,16.95
	c-11.2,11.33-21.88,23.24-34.69,32.89c-4.05,3.06-7.71,6.65-11.8,9.64c-6.13,4.47-12.38,8.81-18.79,12.86
	c-8,5.05-16.09,9.97-24.38,14.52c-6.3,3.47-12.93,6.35-19.46,9.36c-6.53,3.02-13.19,5.76-19.7,8.84c-9.8,4.64-20.35,6.56-30.83,8.66
	c-4.38,0.88-8.98,0.66-13.46,1.13c-1.04,0.11-2.6,0.8-2.88,1.59c-0.97,2.75-1.51,5.66-2.15,8.52c-0.76,3.44-1.26,6.96-2.21,10.35
	c-1.49,5.27-2.25,10.69-0.61,15.85c2.63,8.27,7.29,15.27,14.8,20.22c6.89,4.54,14.39,7.01,22.53,7.29
	c4.47,0.15,9.01-0.34,13.45-0.98c5.56-0.8,11.18-1.61,16.53-3.22c7.12-2.13,14.06-4.89,20.98-7.62c9.87-3.91,19.79-7.75,29.44-12.17
	c6.9-3.16,13.45-7.11,20.04-10.92c6.4-3.69,12.78-7.44,18.92-11.55c7.24-4.84,14.24-10.02,21.27-15.16
	c5.53-4.05,11.06-8.11,16.37-12.43c5.35-4.36,10.67-8.8,15.56-13.65c8.31-8.24,16.43-16.68,24.35-25.3
	c6.89-7.49,13.46-15.29,20.07-23.04c2.56-3.01,4.95-6.18,7.25-9.39c2.8-3.91,5.46-7.93,8.12-11.94c3.32-4.99,6.7-9.96,9.84-15.06
	c2.67-4.34,5.15-8.82,7.53-13.33c4.3-8.13,8.65-16.25,12.65-24.53c4.08-8.45,7.9-17.03,11.54-25.68c2.41-5.73,4.38-11.65,6.4-17.54
	c1.99-5.79,3.84-11.63,5.64-17.48c0.92-2.98,1.62-6.02,2.37-9.05c0.77-3.13,1.46-6.28,2.23-9.41c1.24-5.01,2.69-9.97,3.73-15.02
	c0.91-4.43,1.32-8.97,2.08-13.44c0.93-5.51,2.18-10.98,2.92-16.51c0.88-6.6,1.46-13.24,2-19.87c0.48-5.89,1.11-11.8,0.96-17.68
	c-0.23-8.74,0.81-17.47-0.76-26.27c-1.21-6.76-0.81-13.81-1.19-20.72c-0.26-4.8-0.56-9.59-0.97-14.38
	c-0.22-2.55-0.64-5.09-1.09-7.61c-0.93-5.21-1.97-10.4-2.91-15.6c-0.75-4.17-1.22-8.39-2.13-12.52c-1.12-5.03-2.6-9.98-3.89-14.98
	c-1.39-5.39-2.38-10.91-4.17-16.15c-3.69-10.76-7.64-21.44-11.78-32.03c-3.41-8.72-6.95-17.42-10.99-25.87
	c-4.15-8.67-8.93-17.05-13.51-25.51c-2.52-4.66-4.95-9.41-7.88-13.82c-5.22-7.87-10.7-15.58-16.23-23.23
	c-4.91-6.79-9.93-13.52-15.12-20.1c-3.89-4.93-7.86-9.86-12.3-14.28c-12.1-12.07-24.46-23.87-36.72-35.78
	c-0.14-0.14-0.26-0.32-0.41-0.44c-4.46-3.47-8.94-6.91-13.38-10.4c-4.93-3.87-9.61-8.09-14.77-11.61
	c-7.99-5.46-16.19-10.64-24.5-15.6c-9.66-5.77-19.36-11.52-29.37-16.64c-9.37-4.79-19.12-8.84-28.8-13.01
	c-5.22-2.25-10.59-4.16-15.96-6.04c-6.75-2.36-13.51-4.72-20.37-6.74c-6.68-1.97-13.49-3.51-20.25-5.25
	c-3.61-0.93-7.19-1.95-10.82-2.78c-3.65-0.84-7.32-1.58-11.01-2.2c-2.84-0.48-5.74-0.61-8.59-1.08c-5.54-0.91-11.04-2.13-16.6-2.87
	c-6.61-0.88-13.26-1.55-19.92-2c-7.73-0.53-15.48-1.01-23.22-0.99c-9.27,0.02-18.53,0.61-27.8,0.93c-1.73,0.06-3.47-0.13-5.18,0.06
	c-5.22,0.58-10.43,1.36-15.65,1.93c-4.07,0.44-8.17,0.63-12.24,1.06c-2.26,0.24-4.5,0.7-6.74,1.12c-3.09,0.58-6.16,1.25-9.26,1.8
	c-2.54,0.45-5.13,0.6-7.63,1.19c-4.96,1.16-9.86,2.58-14.8,3.81c-7.05,1.76-14.23,3.1-21.16,5.24c-9.83,3.03-19.6,6.32-29.18,10.05
	c-9.62,3.74-19.13,7.84-28.41,12.35c-8.97,4.35-17.56,9.47-26.37,14.15c-10.42,5.54-20.42,11.7-29.83,18.86
	c-6.84,5.2-14.09,9.87-20.9,15.1c-6.24,4.8-12.23,9.93-18.16,15.11c-5,4.37-9.89,8.89-14.6,13.58c-3.98,3.96-7.62,8.27-11.44,12.4
	c-4.58,4.95-9.19,9.87-13.78,14.8c-0.21,0.22-0.48,0.39-0.67,0.63c-4.47,5.8-8.94,11.6-13.39,17.42c-3.25,4.25-6.65,8.4-9.64,12.82
	c-4.06,6.02-7.87,12.21-11.64,18.42c-4.28,7.05-8.66,14.05-12.51,21.33c-4.59,8.67-8.69,17.6-12.95,26.44
	c-1.74,3.62-3.52,7.24-4.95,10.98c-2.92,7.63-5.69,15.33-8.39,23.04c-2.34,6.7-4.68,13.4-6.66,20.21
	c-1.91,6.54-3.47,13.19-4.99,19.84c-1.47,6.39-2.82,12.81-4,19.26c-1.16,6.39-2.15,12.82-3,19.27c-0.84,6.39-1.49,12.8-2.05,19.22
	c-0.46,5.19-0.98,10.41-0.92,15.6c0.16,16.29,0.58,32.57,0.9,48.86c0.01,0.3-0.01,0.61,0.03,0.91c0.66,4.48,1.45,8.94,1.97,13.43
	c0.48,4.06,0.61,8.16,1.02,12.23c0.23,2.24,0.67,4.47,1.12,6.69c0.92,4.5,1.96,8.97,2.86,13.47c0.77,3.85,1.29,7.76,2.17,11.59
	c0.76,3.31,1.95,6.52,2.81,9.81c1.16,4.44,1.94,8.98,3.31,13.35c2.03,6.48,4.39,12.86,6.68,19.26c2.72,7.61,5.5,15.2,8.29,22.79
	c0.64,1.74,1.82,2.3,3.83,2.34c7.99,0.17,15.18,2.37,19.91,9.47c2.38,3.57,3.85,7.38,4.05,11.85c0.28,6.4-1.9,11.6-6.1,16.21
	c-0.47,0.52-0.65,1.86-0.32,2.45c3.54,6.34,6.93,12.79,10.9,18.84c4.75,7.24,9.97,14.18,15.09,21.16
	c4.96,6.76,9.92,13.53,15.14,20.09c4.16,5.22,8.45,10.39,13.15,15.13c8.89,8.96,18.03,17.69,27.22,26.33
	c4.95,4.66,10.19,9.02,15.41,13.39c5.11,4.28,10.2,8.61,15.58,12.53c5.74,4.18,11.7,8.08,17.75,11.8
	c11.33,6.98,22.59,14.13,34.27,20.49c9.16,4.99,18.97,8.78,28.38,13.33c8.9,4.3,18.13,7.53,27.72,9.87c6,1.46,11.85,3.61,17.91,4.72
	C847.86,932.56,853.53,932.58,859.12,933.03z"/>
<path class="st2" d="M1432.26,602.06c-5.03,4.04-10.07,8.08-15.11,12.12c2.65,5.93,5.35,11.98,8.06,18.03
	c-0.27,0.16-0.53,0.32-0.8,0.48c-5.48-3.06-10.94-6.14-16.47-9.12c-0.6-0.32-1.78-0.34-2.26,0.04c-4.5,3.6-8.91,7.33-13.57,11.2
	c-1.66-1.99-0.14-3.98,0.11-5.84c0.31-2.3,1.03-4.55,1.54-6.83c0.09-0.39-0.05-0.82,0.03-1.21c1.13-5.53,1.06-5.39-3.84-8.09
	c-3.85-2.12-7.47-4.64-11.2-6.99c0.09-0.29,0.19-0.59,0.28-0.88c6.43-0.71,12.87-1.43,19.33-2.15c1.46-6.12,2.87-12.02,4.28-17.92
	c0.39-0.04,0.78-0.08,1.17-0.12c0.82,2,1.59,4.02,2.46,6.01c1.52,3.5,3.04,6.99,4.69,10.43c0.27,0.57,1.16,1.19,1.75,1.18
	c2.07-0.04,4.14-0.32,6.21-0.56c2.76-0.31,5.5-0.72,8.26-0.98c1.47-0.13,2.96-0.02,4.45-0.02
	C1431.85,601.25,1432.06,601.65,1432.26,602.06z"/>
<path class="st3" d="M522.66,567.92c-4.5,3.71-8.4,6.93-12.21,10.07c2.04,4.62,3.96,8.97,5.87,13.31c-0.17,0.29-0.33,0.59-0.5,0.88
	c-1.59-0.66-3.25-1.19-4.74-2.01c-2.5-1.37-5.02-2.75-7.29-4.46c-1.65-1.24-2.36-0.42-3.53,0.56c-3.3,2.77-6.73,5.38-10.12,8.05
	c-0.27-0.21-0.54-0.42-0.8-0.63c0.95-3.59,2.09-7.15,2.79-10.8c0.41-2.12,0.47-4.16-2.49-5.34c-3.05-1.22-5.71-3.44-8.49-5.31
	c-0.51-0.34-0.76-1.06-1.47-2.1c1.34-0.15,2.17-0.27,3.01-0.34c3.68-0.33,7.36-0.59,11.02-1.03c0.56-0.07,1.32-0.79,1.51-1.37
	c0.76-2.31,1.36-4.67,1.96-7.03c0.41-1.61,0.7-3.26,1.12-4.86c0.07-0.27,0.73-0.66,0.85-0.59c0.43,0.28,0.87,0.68,1.09,1.14
	c1.68,3.54,3.37,7.08,4.93,10.67c0.63,1.45,1.18,1.48,2.84,1.32C512.61,567.63,517.27,567.92,522.66,567.92z"/>
<path class="st4" d="M1112.19,101.85c-0.44,0.6-0.77,1.33-1.33,1.78c-2.77,2.24-5.59,4.42-8.42,6.59c-1.38,1.05-1.88,2.09-0.96,3.85
	c1.96,3.78,3.68,7.68,5.5,11.54c-0.25,0.29-0.5,0.58-0.76,0.87c-2.5-1.39-5.01-2.76-7.49-4.17c-1.72-0.98-3.33-2.2-5.15-2.92
	c-0.79-0.32-2.21,0.04-2.93,0.61c-2.89,2.31-5.6,4.83-8.4,7.24c-0.48,0.41-1.11,0.63-2.36,1.31c0.48-3.13,0.73-5.6,1.26-8
	c0.39-1.79,1.45-3.47,1.63-5.25c0.1-0.99-0.73-2.49-1.6-3.09c-2.91-2-6.04-3.7-9.07-5.52c-0.86-0.51-1.69-1.06-2.53-1.59
	c0.21-0.26,0.43-0.52,0.64-0.78c5.11-0.53,10.22-1.05,15.19-1.57c2.04-4.42,1.21-9.83,4.56-14.38c2.22,4.59,4.07,8.45,5.96,12.29
	c0.24,0.49,0.65,1.28,0.97,1.28c3.31-0.03,6.63-0.14,9.93-0.34c1.68-0.1,3.34-0.42,5.01-0.64
	C1111.96,101.26,1112.07,101.55,1112.19,101.85z"/>
<path class="st5" d="M1018.77,79.87c2.12,1.94,4.29,3.83,6.34,5.84c1.32,1.29,2.41,1.74,4.21,0.61c2.55-1.61,5.36-2.82,8.62-4.49
	c-0.16,1.28-0.1,2.32-0.44,3.2c-0.57,1.46-1.39,2.81-2.11,4.21c-1.93,3.72-1.31,5.59,2.29,7.77c1.58,0.95,2.95,2.23,4.42,3.36
	c-0.11,0.35-0.22,0.7-0.33,1.05c-3.09-0.39-6.18-0.96-9.28-1.08c-1.12-0.04-2.69,0.7-3.34,1.6c-1.6,2.2-2.77,4.72-4.17,7.08
	c-0.25,0.42-0.79,0.67-1.2,1c-0.27-0.46-0.72-0.89-0.8-1.38c-0.39-2.43-0.54-4.91-1.1-7.29c-0.2-0.86-1.22-1.98-2.04-2.16
	c-2.6-0.57-5.3-0.71-7.94-1.13c-0.68-0.11-1.3-0.59-1.95-0.9c0.47-0.41,0.89-0.9,1.42-1.21c2.38-1.38,4.88-2.58,7.14-4.13
	c0.64-0.44,0.94-1.89,0.82-2.8c-0.37-2.88-1.02-5.72-1.56-8.58C1018.11,80.25,1018.44,80.06,1018.77,79.87z"/>
<path class="st6" d="M1030.82,851.4c4.7-10.96,8.96-20.9,13.23-30.84c-3.01-1.44-8.23,1.05-10.12,4.36
	c-4.77,8.36-9.74,16.6-14.55,24.93c-2.06,3.57-3.76,7.36-5.92,10.87c-4.59,7.44-9.4,14.75-14.09,22.13
	c-4.81,7.57-10.77,14.15-17.29,20.25c-3.37,3.15-7.17,5.45-12.1,4.61c-4.21-0.72-7.89-2.63-10.95-5.54
	c-5.8-5.52-10.76-11.69-15.53-18.18c-5.81-7.9-11.01-16.05-15.62-24.68c-4.72-8.83-9.89-17.42-14.95-26.06
	c-2.87-4.91-5.86-9.76-8.96-14.53c-0.37-0.58-1.9-0.85-2.69-0.61c-1.48,0.47-2.8,1.42-4.31,2.23c5.04,12.94,10.07,25.89,15.16,38.95
	c-68.47-10.15-128.04-38.61-177.53-86.77c-49.23-47.91-80.01-106.22-91.27-174.02c-11.96-71.99-0.7-140.72,34.7-204.7
	c37.39-67.58,92.55-115.56,164.54-143.72c45.25-17.69,92.37-24.32,140.68-19.89c47.73,4.38,92.58,18.63,133.78,43.46
	c41.71,25.14,75.9,58.16,103.01,98.91c-5.13,3.81-8.37,8.75-9.67,14.55c-0.81,3.65-0.89,7.73-0.18,11.4
	c1.11,5.73,4.48,10.4,8.95,14.26c4.29,3.71,9.25,5.77,14.81,6.06c2.95,0.15,5.93-0.61,8.91-0.78c0.65-0.04,1.66,0.56,1.96,1.14
	c1.76,3.5,3.52,7.02,4.98,10.65c1.99,4.96,3.85,9.98,5.5,15.05c1.68,5.16,3.08,10.42,4.55,15.65c1.14,4.04,2.26,8.08,3.26,12.16
	c1,4.07,1.88,8.17,2.74,12.27c1.03,4.88,2.05,9.76,2.94,14.67c0.49,2.73,0.81,5.51,1.02,8.28c0.42,5.69,0.82,11.38,1.02,17.08
	c0.41,11.5,0.95,23,0.9,34.5c-0.03,5.8-1.26,11.6-1.89,17.4c-0.38,3.47-0.5,6.97-1,10.41c-0.84,5.73-1.87,11.43-2.88,17.13
	c-0.65,3.66-1.34,7.33-2.14,10.96c-0.95,4.29-1.93,8.58-3.09,12.82c-1.17,4.31-2.46,8.6-3.9,12.83c-1.9,5.62-3.95,11.19-6,16.76
	c-5.2,14.12-11.93,27.55-19.03,40.77c-3.7,6.9-8.11,13.43-12.31,20.05c-3.16,4.97-6.38,9.91-9.8,14.7
	c-2.59,3.63-5.44,7.1-8.37,10.46c-5.52,6.34-11.16,12.57-16.78,18.83c-3.28,3.66-6.4,7.51-9.96,10.88
	c-5.96,5.64-11.95,11.33-18.43,16.34c-9.07,7.02-18.69,13.32-27.92,20.13c-11.68,8.62-24.82,14.61-37.47,21.52
	c-10.67,5.83-22,9.97-33.37,14c-4.51,1.6-9.38,2.19-14.09,3.21C1039.39,849.58,1035.45,850.41,1030.82,851.4z M927.37,658.64
	c-0.74,2.39-1.25,5.12-2.42,7.53c-2.54,5.23-5.11,10.49-8.26,15.36c-2.64,4.07-6.22,7.52-9.2,11.38
	c-5.23,6.75-10.27,13.65-15.49,20.42c-4.34,5.63-7.97,11.83-8.8,18.77c-1.16,9.75-0.44,19.59,4.28,28.6
	c2.11,4.02,4.46,7.92,6.83,11.79c0.38,0.62,1.45,0.81,2.2,1.21c-0.07-0.75-0.08-1.51-0.21-2.25c-0.39-2.23-1.22-4.45-1.18-6.67
	c0.12-5.8,0.38-11.63,1.02-17.39c0.62-5.55,3.06-10.41,7.14-14.35c0.87-0.84,1.7-1.74,2.57-2.59c3.91-3.82,7.68-7.81,11.8-11.4
	c3.2-2.79,6.89-5.02,10.27-7.62c3.55-2.73,6.99-5.62,10.49-8.42c4.83-3.86,9.82-7.54,14.45-11.62c2.76-2.43,5.11-5.37,7.36-8.3
	c2.41-3.13,5-6.28,6.57-9.83c2.2-4.99,3.44-10.4,5.27-15.56c2.36-6.67,2.97-13.55,2.94-20.55c0-0.65,0.06-1.31,0.1-1.96
	c0.25-0.09,0.5-0.18,0.75-0.26c0.72,1.42,1.67,2.77,2.1,4.26c0.87,3.02,1.57,6.09,2.13,9.18c0.45,2.52,1.1,5.16,0.77,7.63
	c-0.6,4.46-1.97,8.81-2.82,13.24c-0.8,4.17-1,8.49-2.12,12.56c-1.26,4.6-1.13,8.92,0.04,13.49c1.58,6.18,5.3,10.31,10.92,12.88
	c1.12,0.51,2.47,0.5,4.38,0.84c-1.57-2.2-2.73-3.56-3.61-5.09c-3.22-5.6-3.72-11.68-1.66-17.61c2.69-7.74,8.28-13.88,12.71-20.65
	c3.89-5.94,7.62-11.99,11.4-18c0.76-1.22,1.43-2.5,2.14-3.75c0.32-0.04,0.65-0.07,0.97-0.11c1.68,3.95,3.21,7.97,5.08,11.82
	c3.32,6.82,3.45,14.32,4.64,21.55c0.86,5.23,0.72,10.62,1.02,15.93c0.02,0.3,0,0.62,0.06,0.91c0.67,3.26,1.41,6.51,2.02,9.79
	c0.77,4.18,0.96,8.52,2.23,12.53c3.38,10.64,10.25,18.58,20.25,23.55c4.58,2.28,9.38,4.2,14.25,5.77c3.07,0.99,6.45,1.03,9.7,1.49
	c0.05-0.28,0.09-0.57,0.14-0.85c-2.85-1.98-5.99-3.64-8.47-6.01c-3.99-3.82-8.05-7.76-11.12-12.29c-2.41-3.56-4.55-8.04-4.74-12.21
	c-0.48-10.71-0.71-21.47,1.59-32.16c1.44-6.68,1.46-13.66,2.11-20.51c0.05-0.5,0.01-1.02,0.08-1.52c0.66-4.59,1.61-9.15,1.91-13.76
	c0.19-2.92-0.97-5.91-0.88-8.85c0.21-6.86-2.25-13.05-4.72-19.12c-3.81-9.37-9.3-17.78-16.67-24.86c-0.53-0.51-0.94-1.16-1.77-2.2
	c1.58,0.09,2.76-0.19,3.5,0.26c3.99,2.4,8.2,4.6,11.68,7.63c3.02,2.63,5.34,6.15,7.66,9.49c3.89,5.59,7.25,11.56,11.36,16.97
	c2.85,3.76,6.04,7.79,11.08,8.71c4.11,0.75,8.38,0.88,12.58,0.83c1.71-0.02,3.39-1.27,5.09-1.95c-0.08-0.35-0.16-0.7-0.25-1.05
	c-2.03-0.33-4.21-0.28-6.06-1.05c-6.27-2.59-11.56-6.49-14.19-13.02c-0.9-2.24-1.09-4.79-1.55-7.2c-0.94-4.94-1.81-9.89-2.78-14.82
	c-0.85-4.33-1.53-8.72-2.77-12.94c-1.26-4.27-3.11-8.37-4.79-12.81c1.04,0.4,1.9,0.88,2.82,1.04c9.15,1.63,16.86,6.2,24.01,11.83
	c4.01,3.15,7.77,6.62,11.81,9.73c6.38,4.91,12.98,9.54,19.34,14.47c5.64,4.38,12.24,6.68,19,7.78c4.72,0.76,9.77-0.31,14.64-0.83
	c7.57-0.81,14.05-4.54,20.46-8.27c1.89-1.1,3.45-2.79,5.9-4.82c-1.96,0.12-3.04,0.07-4.07,0.27c-2.79,0.55-5.56,1.69-8.34,1.72
	c-4.79,0.05-9.62-0.3-14.36-0.97c-6.7-0.95-12.43-4.12-17.15-8.95c-3.79-3.88-7.47-7.89-11.02-11.99
	c-2.93-3.39-5.63-6.99-8.38-10.53c-4.26-5.49-8.43-11.05-12.74-16.49c-2.24-2.82-4.61-5.55-7.1-8.15c-3.15-3.3-6.06-7.08-9.83-9.48
	c-5.56-3.55-11.62-6.46-17.75-8.91c-6.91-2.76-14.2-4.45-21.76-4.39c-2.87,0.02-5.74,0-8.62,0c0.56-0.97,1.22-1.33,1.86-1.69
	c8.84-4.9,18.22-5.25,27.86-3.22c4.63,0.97,9.25,2.05,13.89,2.96c2.34,0.46,5.04,0.07,7.04,1.11c4.16,2.16,8.12,0.43,11.62-0.68
	c6.77-2.13,11.57-6.91,13.14-14.96c-1.72,0.99-3.09,1.68-4.36,2.51c-5.53,3.62-11.6,5.66-17.84,2.97
	c-6.13-2.64-12.19-5.82-17.55-9.77c-8.67-6.38-17.89-11.57-27.72-15.81c0.09-0.17,0.15-0.41,0.29-0.5
	c9.83-6.16,20.58-9.64,32.07-10.93c6.24-0.7,12.5-1.25,18.74-1.99c4.63-0.55,9.22-1.61,13.85-1.86c6.77-0.37,12.69-2.92,18.51-6.05
	c5.74-3.08,10.01-7.74,13.16-13.2c2.74-4.74,4.88-9.92,6.62-15.12c1.21-3.61,1.29-7.59,1.87-11.41c-0.36-0.1-0.72-0.2-1.07-0.29
	c-3.02,6.12-7.63,10.91-12.47,15.54c-5.5,5.25-12.08,8.77-19.49,9.18c-8.41,0.47-16.91-0.27-25.34-0.97
	c-5.91-0.49-11.74-1.91-17.63-2.73c-5.91-0.82-11.84-1.87-17.77-1.99c-6.91-0.14-13.96-0.03-20.74,1.17
	c-7.35,1.3-14.27,4.37-20.84,8.14c-5.58,3.21-10.89,6.68-15.32,11.4c-0.97,1.04-2.12,1.92-3.7,3.34c0.73-6.63,4.05-11.06,7.69-15.23
	c4.85-5.56,11.36-8.94,17.41-12.97c5.12-3.41,10.4-6.9,14.59-11.33c5.26-5.56,6.73-12.65,4.12-20.17c-0.51-1.48-1.28-2.87-2.16-4.8
	c-0.67,2.73-1.07,4.74-1.67,6.69c-2.4,7.83-7.27,13.36-15.28,15.66c-5.11,1.46-10.31,2.64-15.48,3.88
	c-3.26,0.78-6.55,1.41-9.81,2.18c-3.54,0.84-7.1,1.66-10.59,2.67c-3.15,0.91-6.24,2.06-9.55,3.17c0.67-2.26,1.39-4.17,1.79-6.15
	c1.52-7.55,5.41-13.94,9.87-19.98c3.26-4.4,7.14-8.34,10.5-12.68c5.11-6.58,10.14-13.23,14.96-20.01c5.05-7.1,8.1-14.9,7.69-23.88
	c-0.24-5.19,0.29-10.45-2.03-15.32c-2.32-4.87-4.66-9.73-7.22-14.47c-1.04-1.91-2.7-3.49-4.07-5.22c-0.25,0.2-0.5,0.4-0.75,0.6
	c0.31,0.92,0.84,1.82,0.9,2.76c0.41,6.41,0.92,12.83,0.98,19.24c0.02,2.48-0.87,5.02-1.64,7.44c-1.22,3.79-3.05,7.22-5.96,10.12
	c-3.63,3.61-6.65,7.87-10.49,11.21c-5.1,4.43-10.78,8.17-16.12,12.33c-5.27,4.11-10.42,8.36-15.62,12.57c-2.1,1.7-4.31,3.29-6.2,5.2
	c-3.4,3.43-6.61,7.06-9.87,10.63c-1.01,1.11-2.25,2.15-2.86,3.47c-3.13,6.67-6.72,13.11-8.26,20.5c-1.42,6.82-3.07,13.54-2.84,20.56
	c0.03,0.91,0,1.82,0,3.52c-4.5-6.59-5.62-13.19-5.94-19.94c-0.09-2.02,0.63-4.08,0.97-6.12c0.43-2.63,0.76-5.28,1.3-7.89
	c1.17-5.68,2.87-11.28,3.58-17.01c1.05-8.45-1.33-15.93-8.39-21.29c-2.11-1.6-4.35-3.36-7.98-2.69c0.75,1.06,1.12,1.72,1.61,2.27
	c5.84,6.45,6.84,17.03,2.51,23.92c-4.73,7.53-10.47,14.41-15.43,21.81c-3.68,5.49-6.83,11.35-10.08,16.81
	c-0.4-0.77-1.23-2.09-1.82-3.51c-2.12-5.18-4.57-10.27-6.11-15.63c-1.28-4.43-1.54-9.16-2.1-13.78c-0.77-6.31-1.29-12.64-2.13-18.94
	c-0.85-6.36-1.5-12.8-3.09-18.99c-2.72-10.64-9.16-18.76-18.69-24.28c-7.27-4.21-15.26-6.48-23.46-8.05
	c-0.78-0.15-1.63,0.09-2.92,0.18c0.76,0.82,1.04,1.3,1.45,1.54c7.05,4.14,13.21,9.22,17.98,15.98c3.6,5.09,5.77,10.62,5.67,16.83
	c-0.12,7.96-0.51,15.92-0.91,23.87c-0.18,3.57-0.64,7.13-1.07,10.68c-0.58,4.82-1.27,9.63-1.9,14.44c-0.07,0.5,0.02,1.02-0.04,1.52
	c-0.64,5.12-1.79,10.23-1.8,15.35c-0.01,4.91,0.79,9.91,1.92,14.71c1.32,5.61,2.68,11.42,5.32,16.47
	c3.13,5.99,7.61,11.28,11.55,16.84c1.5,2.12,3.15,4.13,5.21,6.83c-2.27-0.83-3.86-1.29-5.35-1.97
	c-10.22-4.71-16.25-13.47-21.91-22.63c-2.75-4.45-5.56-8.91-8.82-12.99c-5.29-6.6-12.59-8.68-20.73-7.51
	c-2.22,0.32-4.99,0.67-6.53,3.24c2.49,0.6,4.65,0.93,6.69,1.64c6.21,2.17,11.61,5.34,13.55,12.26c0.74,2.63,1.47,5.28,1.99,7.96
	c1.07,5.51,1.9,11.07,3,16.57c1.1,5.48,2.34,10.93,3.66,16.37c0.53,2.19,1.43,4.28,2.36,7.01c-1.48-0.61-2.25-1.06-3.08-1.26
	c-9.72-2.29-17.92-7.34-25.33-13.85c-2.25-1.98-4.53-3.95-6.88-5.81c-4.29-3.4-8.56-6.81-12.98-10.04
	c-4.08-2.98-8.23-5.91-12.56-8.52c-4.34-2.62-9.28-3.66-14.15-5.05c-5.84-1.67-11.31-0.54-16.54,0.68
	c-8.49,1.98-16.51,5.66-23.22,11.56c-0.44,0.39-0.75,0.93-1.12,1.4c0.59,0.08,1.2,0.3,1.76,0.2c4.67-0.82,9.3-2.09,13.99-2.44
	c3.63-0.27,7.42,0.23,10.98,1.05c3.23,0.74,6.63,1.85,9.27,3.75c5.38,3.88,10.81,7.74,14.78,13.39c4.12,5.85,9.06,11.12,13.52,16.74
	c5.86,7.39,11.33,15.09,17.45,22.25c7.12,8.34,16.1,14.08,26.49,17.93c9.83,3.64,19.91,5.21,30.26,5.76
	c0.32,0.02,0.64,0.15,1.3,0.31c-10.24,6.3-20.88,5.53-31.44,3.37c-7.79-1.59-15.39-3.66-23.47-3.8
	c-8.53-0.15-17.71,6.01-20.12,16.15c0.92-0.31,1.62-0.42,2.18-0.76c2.7-1.61,5.17-3.86,8.08-4.76c3.09-0.96,6.65-1.23,9.86-0.8
	c5.74,0.77,9.88,4.94,14.27,8.26c4.87,3.68,9.37,7.85,13.96,11.88c4.52,3.97,9.82,6.48,15.97,8.77c-4.54,1.91-8.52,3.92-12.72,5.26
	c-4.31,1.37-8.78,2.39-13.26,3.01c-4.86,0.67-9.82,0.64-14.72,1.04c-3.27,0.26-6.55,0.6-9.79,1.13c-5.26,0.87-10.51,1.83-15.72,2.93
	c-3.08,0.65-6.21,1.35-9.09,2.57c-5.93,2.53-10.57,6.78-14.84,11.59c-4.39,4.96-6.85,10.89-8.98,16.91
	c-1.54,4.37-1.99,9.12-2.93,13.7c1.27-0.23,2.17-0.78,2.71-1.57c1.62-2.37,2.84-5.04,4.67-7.22c7.9-9.44,17.77-15.49,30.31-15.9
	c6.22-0.21,12.46,0.54,18.7,0.86c0.1,0.01,0.2,0.01,0.3,0.03c5.55,0.98,11.08,2.08,16.65,2.92c5.6,0.84,11.24,1.97,16.86,1.99
	c9.6,0.03,19.27,1.17,28.78-1.85c10.86-3.44,20.68-8.53,29.26-16.03c1.97-1.72,4.12-3.23,6.19-4.84c0.3,0.2,0.6,0.4,0.9,0.6
	c-2.33,4.02-4.24,8.37-7.09,11.98c-5.22,6.6-12.57,10.7-19.51,15.28c-5.4,3.56-11.32,6.49-15.06,12.31
	c-4.12,6.42-5.24,12.9-2.18,19.96c0.4,0.91,1.02,1.73,1.81,3.04c1.35-9.17,3.22-11.57,6.15-15.47c3.81-5.07,9.78-6.65,15.61-7.88
	c7.55-1.59,15.24-2.54,22.82-4.05C915.8,661.71,921.28,660.14,927.37,658.64z M970.59,894.75c10.04,1.2,18.5-8.93,18.45-16.03
	c-0.09-11.95-6.83-19.54-16.93-20.07c-13.14-0.7-19.99,9.22-19.98,18C952.13,885.72,958.59,895.57,970.59,894.75z M1074.98,399.09
	c0.88-8.2-7.77-14.19-14.13-14.18c-8.12,0.02-12.96,5.78-12.86,15.55c0.08,7.38,5.82,12.19,12.86,12.45
	C1067.28,413.14,1075.72,406.89,1074.98,399.09z M760.97,583.89c8.84,0.67,14.03-6.14,14.16-13.35c0.14-7.66-6.13-13.65-13.54-13.71
	c-9.06-0.07-13.95,6.79-14.43,13.93C746.66,578.22,752.9,583.89,760.97,583.89z M819.05,695.35c0,7.84,5.44,13.47,13.03,13.44
	c6.24-0.02,14.72-5.79,14.09-14.59c-0.51-7.15-6.75-13.43-13.55-13.26C825.59,681.13,818.72,684.23,819.05,695.35z M923.28,347.96
	c-10.31-0.62-13.43,6.54-14.08,13.37c-0.57,6.05,5.81,13.81,13.57,13.75c8.27-0.07,14.2-6.31,14.28-13.36
	C937.14,353.85,931.31,347.27,923.28,347.96z M812.08,432.41c0-7.75-4.98-13.15-11.64-13.57c-10.8-0.68-15.13,6.66-15.34,13.16
	c-0.27,8.32,5.96,14.01,12.63,13.96C807.4,445.89,812.08,441.52,812.08,432.41z M1132.61,509.87c-9.55,0-13.66,4.64-13.67,15.43
	c0,6.07,6.07,11.6,12.76,11.6c8.31,0.01,14.23-5.14,14.23-12.37C1145.92,515.01,1141.25,509.87,1132.61,509.87z M1107.95,661.36
	c0-8.1-5.06-13.08-12.51-13.67c-8.2-0.65-15.03,6.62-14.67,14.38c0.29,6.23,6.75,13.11,13.1,12.87
	C1103.22,674.59,1107.95,670.33,1107.95,661.36z"/>
<path class="st1" d="M859.12,933.03c-5.59-0.45-11.26-0.47-16.76-1.47c-6.05-1.11-11.91-3.26-17.91-4.72
	c-9.59-2.33-18.82-5.56-27.72-9.87c-9.41-4.55-19.22-8.34-28.38-13.33c-11.68-6.36-22.94-13.51-34.27-20.49
	c-6.05-3.73-12.01-7.62-17.75-11.8c-5.38-3.92-10.47-8.25-15.58-12.53c-5.22-4.37-10.45-8.73-15.41-13.39
	c-9.2-8.65-18.33-17.37-27.22-26.33c-4.7-4.74-8.99-9.9-13.15-15.13c-5.22-6.56-10.18-13.33-15.14-20.09
	c-5.13-6.99-10.34-13.92-15.09-21.16c-3.98-6.06-7.37-12.51-10.9-18.84c-0.33-0.6-0.15-1.94,0.32-2.45c4.2-4.61,6.38-9.8,6.1-16.21
	c-0.2-4.47-1.67-8.28-4.05-11.85c-4.74-7.1-11.92-9.3-19.91-9.47c-2.01-0.04-3.19-0.6-3.83-2.34c-2.79-7.59-5.57-15.18-8.29-22.79
	c-2.29-6.4-4.65-12.78-6.68-19.26c-1.37-4.37-2.15-8.91-3.31-13.35c-0.86-3.29-2.05-6.5-2.81-9.81c-0.88-3.83-1.4-7.74-2.17-11.59
	c-0.9-4.5-1.94-8.97-2.86-13.47c-0.45-2.21-0.89-4.44-1.12-6.69c-0.42-4.07-0.55-8.17-1.02-12.23c-0.53-4.49-1.31-8.96-1.97-13.43
	c-0.04-0.3-0.03-0.61-0.03-0.91c-0.32-16.29-0.74-32.57-0.9-48.86c-0.05-5.2,0.47-10.41,0.92-15.6c0.56-6.42,1.21-12.83,2.05-19.22
	c0.84-6.44,1.83-12.87,3-19.27c1.17-6.45,2.53-12.87,4-19.26c1.53-6.65,3.08-13.3,4.99-19.84c1.99-6.81,4.32-13.51,6.66-20.21
	c2.69-7.72,5.47-15.41,8.39-23.04c1.43-3.74,3.21-7.36,4.95-10.98c4.26-8.84,8.36-17.77,12.95-26.44
	c3.85-7.28,8.23-14.28,12.51-21.33c3.77-6.21,7.58-12.4,11.64-18.42c2.99-4.43,6.39-8.57,9.64-12.82
	c4.45-5.82,8.92-11.62,13.39-17.42c0.18-0.24,0.46-0.4,0.67-0.63c4.6-4.93,9.21-9.85,13.78-14.8c3.82-4.13,7.45-8.44,11.44-12.4
	c4.71-4.69,9.59-9.21,14.6-13.58c5.93-5.18,11.92-10.32,18.16-15.11c6.81-5.24,14.06-9.9,20.9-15.1
	c9.41-7.16,19.41-13.32,29.83-18.86c8.81-4.68,17.4-9.8,26.37-14.15c9.29-4.5,18.79-8.61,28.41-12.35
	c9.58-3.72,19.35-7.02,29.18-10.05c6.93-2.14,14.11-3.48,21.16-5.24c4.94-1.23,9.84-2.65,14.8-3.81c2.5-0.59,5.1-0.74,7.63-1.19
	c3.1-0.55,6.17-1.22,9.26-1.8c2.24-0.42,4.48-0.88,6.74-1.12c4.07-0.43,8.17-0.62,12.24-1.06c5.23-0.57,10.43-1.35,15.65-1.93
	c1.71-0.19,3.46,0,5.18-0.06c9.27-0.32,18.53-0.9,27.8-0.93c7.74-0.02,15.49,0.46,23.22,0.99c6.66,0.45,13.31,1.12,19.92,2
	c5.56,0.74,11.06,1.96,16.6,2.87c2.84,0.47,5.74,0.6,8.59,1.08c3.69,0.62,7.37,1.36,11.01,2.2c3.63,0.83,7.21,1.86,10.82,2.78
	c6.75,1.74,13.56,3.28,20.25,5.25c6.86,2.02,13.62,4.38,20.37,6.74c5.37,1.88,10.74,3.79,15.96,6.04
	c9.67,4.17,19.43,8.22,28.8,13.01c10.01,5.12,19.71,10.87,29.37,16.64c8.31,4.96,16.5,10.14,24.5,15.6
	c5.16,3.52,9.84,7.74,14.77,11.61c4.44,3.49,8.92,6.93,13.38,10.4c0.16,0.12,0.27,0.3,0.41,0.44
	c12.26,11.91,24.62,23.71,36.72,35.78c4.44,4.43,8.4,9.36,12.3,14.28c5.2,6.58,10.21,13.3,15.12,20.1
	c5.53,7.66,11.01,15.36,16.23,23.23c2.92,4.41,5.35,9.15,7.88,13.82c4.58,8.46,9.36,16.83,13.51,25.51
	c4.04,8.44,7.58,17.14,10.99,25.87c4.14,10.59,8.09,21.27,11.78,32.03c1.8,5.24,2.79,10.76,4.17,16.15
	c1.29,4.99,2.77,9.94,3.89,14.98c0.92,4.13,1.39,8.35,2.13,12.52c0.93,5.21,1.98,10.4,2.91,15.6c0.45,2.52,0.87,5.06,1.09,7.61
	c0.41,4.79,0.71,9.58,0.97,14.38c0.38,6.92-0.01,13.96,1.19,20.72c1.57,8.79,0.53,17.52,0.76,26.27c0.16,5.88-0.48,11.8-0.96,17.68
	c-0.54,6.64-1.12,13.28-2,19.87c-0.74,5.54-1.99,11-2.92,16.51c-0.75,4.47-1.16,9.01-2.08,13.44c-1.04,5.05-2.49,10.01-3.73,15.02
	c-0.77,3.13-1.46,6.28-2.23,9.41c-0.75,3.03-1.45,6.07-2.37,9.05c-1.8,5.85-3.66,11.69-5.64,17.48c-2.02,5.89-3.99,11.81-6.4,17.54
	c-3.64,8.65-7.46,17.23-11.54,25.68c-3.99,8.28-8.35,16.4-12.65,24.53c-2.39,4.51-4.86,8.99-7.53,13.33
	c-3.14,5.11-6.52,10.07-9.84,15.06c-2.66,4.01-5.32,8.03-8.12,11.94c-2.3,3.21-4.68,6.39-7.25,9.39
	c-6.61,7.75-13.18,15.55-20.07,23.04c-7.92,8.61-16.04,17.06-24.35,25.3c-4.89,4.85-10.21,9.3-15.56,13.65
	c-5.31,4.33-10.84,8.39-16.37,12.43c-7.03,5.14-14.04,10.33-21.27,15.16c-6.14,4.1-12.52,7.85-18.92,11.55
	c-6.59,3.81-13.14,7.76-20.04,10.92c-9.65,4.42-19.56,8.27-29.44,12.17c-6.92,2.74-13.86,5.49-20.98,7.62
	c-5.36,1.6-10.98,2.42-16.53,3.22c-4.44,0.64-8.98,1.13-13.45,0.98c-8.13-0.28-15.63-2.75-22.53-7.29
	c-7.51-4.94-12.16-11.94-14.8-20.22c-1.64-5.16-0.88-10.58,0.61-15.85c0.96-3.39,1.45-6.9,2.21-10.35c0.63-2.86,1.18-5.77,2.15-8.52
	c0.28-0.79,1.84-1.48,2.88-1.59c4.48-0.47,9.07-0.25,13.46-1.13c10.48-2.1,21.03-4.02,30.83-8.66c6.5-3.08,13.16-5.82,19.7-8.84
	c6.54-3.02,13.16-5.9,19.46-9.36c8.28-4.56,16.38-9.47,24.38-14.52c6.41-4.05,12.66-8.39,18.79-12.86c4.1-2.99,7.75-6.58,11.8-9.64
	c12.81-9.66,23.49-21.56,34.69-32.89c5.15-5.21,9.47-11.24,14.09-16.95c3.73-4.62,7.51-9.21,10.96-14.03
	c3.25-4.54,6.22-9.3,9.11-14.08c4.81-7.98,9.68-15.94,14.11-24.13c3.73-6.89,7.18-13.98,10.19-21.21
	c4.01-9.62,7.71-19.38,11.08-29.24c2.17-6.35,3.56-12.97,5.16-19.5c1.44-5.87,2.83-11.77,4-17.7c1.18-5.98,2.16-12,3.03-18.03
	c0.8-5.59,1.49-11.2,1.96-16.82c0.51-6.19,0.74-12.4,1.06-18.6c0.34-6.52,0.89-13.05,0.9-19.57c0.01-6.22-0.42-12.45-0.93-18.65
	c-0.49-5.91-1.12-11.83-2.05-17.69c-1.09-6.87-2.57-13.69-3.89-20.52c-0.67-3.46-1.21-6.95-2.05-10.38
	c-1.18-4.82-2.57-9.58-3.87-14.37c-1.05-3.86-1.92-7.77-3.16-11.56c-1.93-5.91-3.98-11.78-6.2-17.59
	c-2.06-5.37-4.48-10.6-6.57-15.95c-0.36-0.92-0.33-2.54,0.24-3.18c5.41-6.1,5.09-13.54,4.37-20.71c-0.34-3.35-2.82-6.55-4.58-9.67
	c-2.28-4.02-6.02-6.49-10.17-8.17c-2.88-1.17-6.05-2.62-8.99-2.43c-4.55,0.3-6.17-2.21-8.15-5.38c-2.66-4.25-5.84-8.18-8.82-12.23
	c-3.74-5.09-7.42-10.22-11.27-15.21c-2.13-2.76-4.48-5.37-6.86-7.91c-6.27-6.69-12.43-13.5-18.99-19.9
	c-6.03-5.88-12.3-11.56-18.86-16.83c-7.08-5.68-14.48-11.02-22.02-16.08c-8.61-5.79-17.39-11.35-26.35-16.57
	c-7.59-4.42-15.41-8.52-23.39-12.2c-7.92-3.65-16.15-6.66-24.29-9.84c-4.93-1.93-9.89-3.84-14.94-5.43
	c-5.51-1.73-11.13-3.11-16.71-4.59c-4.93-1.31-9.86-2.63-14.82-3.79c-2.5-0.58-5.09-0.76-7.62-1.2c-3.1-0.55-6.18-1.22-9.28-1.77
	c-2.53-0.45-5.07-0.88-7.63-1.17c-3.66-0.42-7.34-0.87-11.02-1.02c-9.98-0.42-19.97-0.8-29.96-0.98c-9-0.16-18.02-0.28-27.02,0.05
	c-6.56,0.24-13.1,1.1-19.62,1.95c-6.06,0.8-12.14,1.67-18.1,3.03c-8.98,2.04-17.88,4.45-26.78,6.85c-7.1,1.91-14.2,3.84-21.19,6.13
	c-5.12,1.67-10.14,3.72-15.04,5.96c-10.6,4.83-21.25,9.58-31.58,14.95c-7.77,4.04-15.12,8.89-22.54,13.56
	c-6.01,3.78-11.94,7.71-17.74,11.8c-3.65,2.58-7.07,5.51-10.47,8.42c-5.56,4.76-11.09,9.55-16.49,14.48
	c-6.11,5.58-12.25,11.14-18.02,17.06c-4.8,4.92-9.28,10.19-13.56,15.59c-4.9,6.18-9.58,12.54-14.05,19.04
	c-5.12,7.44-10.24,14.91-14.73,22.73c-6.5,11.33-12.83,22.79-18.47,34.56c-3.86,8.05-6.5,16.69-9.51,25.14
	c-2.74,7.69-5.45,15.4-7.76,23.23c-1.44,4.86-2.07,9.95-3.17,14.92c-0.91,4.1-2.08,8.14-2.92,12.25c-0.55,2.72-0.64,5.52-1.05,8.27
	c-0.59,3.87-1.29,7.73-1.95,11.6c-0.03,0.2-0.06,0.4-0.08,0.6c-0.32,4.49-0.79,8.97-0.94,13.47c-0.42,12.61-0.96,25.22-0.94,37.83
	c0.01,6.12,1.2,12.23,1.84,18.34c0.05,0.5-0.03,1.02,0.04,1.52c0.66,5.19,1.38,10.37,2.01,15.55c0.39,3.16,0.49,6.36,1.03,9.49
	c0.73,4.23,1.71,8.41,2.65,12.6c0.71,3.14,1.53,6.26,2.3,9.39c1.07,4.36,2,8.76,3.25,13.07c1.44,4.94,3.11,9.82,4.79,14.68
	c1.59,4.6,3.07,9.26,5.05,13.69c5.17,11.63,10.23,23.32,16,34.66c4.26,8.38,9.45,16.3,14.43,24.3c3.74,6.01,7.65,11.93,11.79,17.67
	c2.95,4.1,6.51,7.76,9.61,11.77c9.28,12,20.15,22.52,31.12,32.9c7.51,7.11,15.69,13.55,23.84,19.95
	c7.16,5.63,14.56,10.98,22.11,16.08c5.39,3.64,11.12,6.82,16.84,9.93c8.17,4.43,16.29,9.01,24.77,12.77
	c9.95,4.41,20.24,8.05,30.42,11.92c5.4,2.05,10.84,4.06,16.37,5.74c4.51,1.36,9.18,2.17,13.77,3.28c3.81,0.92,7.58,2.01,11.41,2.83
	c2.52,0.54,5.12,0.7,7.66,1.13c3.39,0.57,6.75,1.28,10.14,1.84c1.19,0.2,2.42,0.17,3.64,0.17c4.93,0.02,5.43,0.32,7.2,4.81
	c2.25,5.72,4.23,11.5,3.67,17.8c-0.55,6.19-2.87,11.7-6.04,17.02c-3.02,5.07-7.65,8.14-12.65,10.43c-5.94,2.72-11.95,5.41-18.72,6
	c-5.27,0.45-10.43,2.09-15.69,2.8c-3.2,0.43-6.5,0.08-9.75,0.08C859.15,932.8,859.14,932.91,859.12,933.03z M1033.99,897.05
	c-0.58,12.31,8.98,18.77,18.05,18.44c12.11-0.44,18.18-7.78,18.8-18.84c0.54-9.58-8.35-17.58-17.83-17.98
	C1043.35,878.27,1032.86,886.74,1033.99,897.05z M907.06,899.04c0-11.27-7.3-18.87-16.77-19.46c-10.11-0.63-21.08,7.48-19.32,20.82
	c0.52,3.95,2.19,7.17,4.45,10.12c3.46,4.52,8.98,5.71,14,5.91c3.8,0.15,8.2-0.89,11.47-3.97C905,908.6,908.12,904.39,907.06,899.04z
	 M674.17,800.43c0.01,0.34,0.01,0.69,0.02,1.03c3.91,2.42,7.85,4.79,11.7,7.32c0.62,0.4,1.23,1.59,1.08,2.24
	c-0.82,3.58-1.92,7.09-2.81,10.66c-0.16,0.64,0.19,1.41,0.43,2.86c3.26-2.78,5.87-5.2,8.7-7.34c1.32-1,3.29-2.32,4.54-1.96
	c2.17,0.61,3.95,2.51,6,3.68c2.13,1.22,4.4,2.21,6.6,3.3c0.16-0.26,0.31-0.52,0.47-0.79c-1.75-3.9-3.57-7.77-5.2-11.71
	c-0.33-0.8-0.32-2.32,0.19-2.77c1.98-1.76,4.28-3.15,6.34-4.83c1.41-1.15,2.62-2.55,3.99-3.91c-5.44,0-10.42,0-15.77,0
	c-1.95-4.17-4.15-8.86-6.34-13.54c-0.34,0.1-0.67,0.2-1.01,0.3c-1.14,4.52-2.27,9.04-3.43,13.67
	C684.53,799.23,679.35,799.83,674.17,800.43z M915.46,189.18c4.52-0.53,7.79-2.64,12.03-4.09c2.58,2.73,5.4,5.71,8.52,9
	c0-1.3,0.09-2.29-0.02-3.25c-0.25-2.25-0.84-4.49-0.81-6.73c0.01-1.02,0.94-2.42,1.85-2.94c2.21-1.26,4.67-2.07,6.99-3.14
	c0.43-0.2,0.68-0.79,1.01-1.21c-0.48-0.27-0.93-0.67-1.44-0.78c-3.45-0.75-6.91-1.43-10.19-2.1c-0.48-3.4-0.88-6.43-1.36-9.45
	c-0.08-0.49-0.53-0.93-0.81-1.39c-0.42,0.33-0.97,0.57-1.23,0.99c-1.34,2.17-2.55,4.43-3.95,6.57c-0.39,0.6-1.34,1.33-1.9,1.23
	c-2.2-0.4-4.32-1.2-6.51-1.64c-1.16-0.24-2.41-0.04-3.63-0.04c-0.12,0.29-0.23,0.57-0.35,0.86c1.65,1.7,3.26,3.44,4.96,5.08
	c1.83,1.76,2.47,3.55,0.93,5.89C918.22,184.03,917.14,186.22,915.46,189.18z"/>
<path class="st7" d="M927.37,658.64c-6.09,1.5-11.57,3.07-17.14,4.18c-7.57,1.51-15.26,2.46-22.82,4.05
	c-5.83,1.23-11.8,2.81-15.61,7.88c-2.93,3.9-4.8,6.3-6.15,15.47c-0.79-1.32-1.41-2.13-1.81-3.04c-3.06-7.06-1.94-13.54,2.18-19.96
	c3.74-5.82,9.66-8.74,15.06-12.31c6.94-4.58,14.29-8.68,19.51-15.28c2.85-3.61,4.75-7.96,7.09-11.98c-0.3-0.2-0.6-0.4-0.9-0.6
	c-2.07,1.61-4.22,3.12-6.19,4.84c-8.58,7.5-18.4,12.59-29.26,16.03c-9.51,3.01-19.18,1.88-28.78,1.85
	c-5.62-0.02-11.26-1.15-16.86-1.99c-5.57-0.84-11.1-1.94-16.65-2.92c-0.1-0.02-0.2-0.03-0.3-0.03c-6.23-0.32-12.48-1.06-18.7-0.86
	c-12.54,0.42-22.42,6.46-30.31,15.9c-1.82,2.18-3.05,4.85-4.67,7.22c-0.54,0.79-1.44,1.33-2.71,1.57c0.94-4.58,1.38-9.33,2.93-13.7
	c2.12-6.02,4.58-11.95,8.98-16.91c4.27-4.82,8.91-9.07,14.84-11.59c2.87-1.23,6.01-1.92,9.09-2.57c5.21-1.11,10.46-2.07,15.72-2.93
	c3.24-0.53,6.52-0.87,9.79-1.13c4.91-0.39,9.86-0.37,14.72-1.04c4.48-0.62,8.95-1.64,13.26-3.01c4.2-1.34,8.18-3.35,12.72-5.26
	c-6.15-2.29-11.45-4.8-15.97-8.77c-4.59-4.03-9.09-8.2-13.96-11.88c-4.39-3.32-8.53-7.5-14.27-8.26c-3.22-0.43-6.77-0.16-9.86,0.8
	c-2.9,0.9-5.38,3.16-8.08,4.76c-0.57,0.34-1.27,0.45-2.18,0.76c2.4-10.14,11.59-16.3,20.12-16.15c8.08,0.14,15.68,2.21,23.47,3.8
	c10.56,2.15,21.2,2.92,31.44-3.37c-0.66-0.16-0.98-0.29-1.3-0.31c-10.35-0.55-20.43-2.12-30.26-5.76
	c-10.38-3.85-19.36-9.59-26.49-17.93c-6.12-7.16-11.59-14.87-17.45-22.25c-4.46-5.62-9.4-10.88-13.52-16.74
	c-3.97-5.65-9.4-9.5-14.78-13.39c-2.64-1.9-6.05-3.01-9.27-3.75c-3.57-0.82-7.36-1.32-10.98-1.05c-4.7,0.35-9.33,1.62-13.99,2.44
	c-0.56,0.1-1.17-0.13-1.76-0.2c0.37-0.47,0.67-1.02,1.12-1.4c6.72-5.91,14.73-9.58,23.22-11.56c5.23-1.22,10.7-2.35,16.54-0.68
	c4.87,1.39,9.81,2.43,14.15,5.05c4.33,2.61,8.48,5.54,12.56,8.52c4.42,3.22,8.69,6.64,12.98,10.04c2.35,1.86,4.62,3.83,6.88,5.81
	c7.41,6.51,15.61,11.56,25.33,13.85c0.83,0.19,1.59,0.64,3.08,1.26c-0.93-2.73-1.83-4.83-2.36-7.01
	c-1.32-5.43-2.56-10.89-3.66-16.37c-1.1-5.5-1.93-11.06-3-16.57c-0.52-2.68-1.26-5.33-1.99-7.96c-1.94-6.91-7.33-10.09-13.55-12.26
	c-2.03-0.71-4.19-1.04-6.69-1.64c1.54-2.57,4.31-2.92,6.53-3.24c8.14-1.17,15.44,0.91,20.73,7.51c3.26,4.07,6.07,8.54,8.82,12.99
	c5.66,9.16,11.69,17.92,21.91,22.63c1.49,0.68,3.07,1.14,5.35,1.97c-2.06-2.69-3.71-4.71-5.21-6.83
	c-3.95-5.56-8.43-10.85-11.55-16.84c-2.64-5.05-3.99-10.86-5.32-16.47c-1.13-4.8-1.93-9.8-1.92-14.71
	c0.01-5.12,1.16-10.23,1.8-15.35c0.06-0.5-0.02-1.02,0.04-1.52c0.63-4.81,1.31-9.62,1.9-14.44c0.43-3.55,0.89-7.11,1.07-10.68
	c0.41-7.95,0.79-15.91,0.91-23.87c0.09-6.21-2.07-11.74-5.67-16.83c-4.77-6.75-10.93-11.84-17.98-15.98
	c-0.41-0.24-0.69-0.71-1.45-1.54c1.28-0.09,2.14-0.33,2.92-0.18c8.2,1.57,16.18,3.84,23.46,8.05c9.53,5.52,15.97,13.64,18.69,24.28
	c1.58,6.19,2.23,12.63,3.09,18.99c0.85,6.29,1.36,12.63,2.13,18.94c0.57,4.62,0.82,9.35,2.1,13.78c1.54,5.35,3.99,10.45,6.11,15.63
	c0.58,1.42,1.41,2.75,1.82,3.51c3.25-5.46,6.39-11.32,10.08-16.81c4.96-7.39,10.7-14.28,15.43-21.81c4.33-6.9,3.33-17.48-2.51-23.92
	c-0.5-0.55-0.87-1.21-1.61-2.27c3.63-0.67,5.88,1.09,7.98,2.69c7.06,5.37,9.44,12.84,8.39,21.29c-0.71,5.73-2.41,11.33-3.58,17.01
	c-0.54,2.61-0.86,5.26-1.3,7.89c-0.34,2.04-1.06,4.1-0.97,6.12c0.32,6.76,1.44,13.35,5.94,19.94c0-1.7,0.03-2.61,0-3.52
	c-0.23-7.02,1.42-13.75,2.84-20.56c1.54-7.4,5.14-13.83,8.26-20.5c0.62-1.32,1.85-2.36,2.86-3.47c3.26-3.57,6.47-7.2,9.87-10.63
	c1.89-1.91,4.1-3.5,6.2-5.2c5.19-4.21,10.35-8.46,15.62-12.57c5.34-4.16,11.02-7.91,16.12-12.33c3.84-3.34,6.87-7.6,10.49-11.21
	c2.91-2.9,4.74-6.33,5.96-10.12c0.78-2.42,1.67-4.96,1.64-7.44c-0.06-6.42-0.57-12.83-0.98-19.24c-0.06-0.93-0.59-1.84-0.9-2.76
	c0.25-0.2,0.5-0.4,0.75-0.6c1.38,1.73,3.04,3.31,4.07,5.22c2.56,4.74,4.9,9.6,7.22,14.47c2.32,4.87,1.79,10.13,2.03,15.32
	c0.41,8.98-2.64,16.77-7.69,23.88c-4.83,6.78-9.86,13.43-14.96,20.01c-3.36,4.33-7.24,8.27-10.5,12.68
	c-4.47,6.03-8.35,12.43-9.87,19.98c-0.4,1.98-1.13,3.9-1.79,6.15c3.31-1.11,6.4-2.26,9.55-3.17c3.5-1.01,7.05-1.84,10.59-2.67
	c3.26-0.77,6.56-1.4,9.81-2.18c5.17-1.24,10.37-2.42,15.48-3.88c8.01-2.3,12.88-7.83,15.28-15.66c0.6-1.95,0.99-3.96,1.67-6.69
	c0.88,1.93,1.65,3.32,2.16,4.8c2.61,7.52,1.13,14.62-4.12,20.17c-4.19,4.43-9.46,7.92-14.59,11.33
	c-6.05,4.02-12.56,7.41-17.41,12.97c-3.64,4.17-6.96,8.6-7.69,15.23c1.58-1.42,2.73-2.3,3.7-3.34c4.43-4.72,9.74-8.19,15.32-11.4
	c6.57-3.77,13.49-6.84,20.84-8.14c6.78-1.2,13.83-1.3,20.74-1.17c5.94,0.12,11.87,1.16,17.77,1.99c5.89,0.82,11.72,2.24,17.63,2.73
	c8.42,0.7,16.93,1.44,25.34,0.97c7.41-0.41,14-3.93,19.49-9.18c4.84-4.63,9.45-9.42,12.47-15.54c0.36,0.1,0.72,0.2,1.07,0.29
	c-0.58,3.82-0.67,7.8-1.87,11.41c-1.74,5.21-3.88,10.38-6.62,15.12c-3.15,5.46-7.42,10.11-13.16,13.2
	c-5.82,3.13-11.74,5.67-18.51,6.05c-4.64,0.26-9.22,1.32-13.85,1.86c-6.24,0.74-12.5,1.28-18.74,1.99
	c-11.49,1.29-22.24,4.77-32.07,10.93c-0.14,0.09-0.2,0.33-0.29,0.5c9.83,4.24,19.05,9.43,27.72,15.81
	c5.36,3.94,11.42,7.12,17.55,9.77c6.25,2.69,12.31,0.66,17.84-2.97c1.27-0.83,2.64-1.53,4.36-2.51
	c-1.57,8.05-6.37,12.82-13.14,14.96c-3.5,1.1-7.45,2.83-11.62,0.68c-2-1.03-4.7-0.64-7.04-1.11c-4.64-0.91-9.26-1.99-13.89-2.96
	c-9.64-2.03-19.02-1.67-27.86,3.22c-0.65,0.36-1.3,0.71-1.86,1.69c2.87,0,5.74,0.02,8.62,0c7.56-0.06,14.85,1.63,21.76,4.39
	c6.14,2.45,12.2,5.36,17.75,8.91c3.76,2.4,6.68,6.18,9.83,9.48c2.49,2.6,4.86,5.33,7.1,8.15c4.32,5.44,8.48,11.01,12.74,16.49
	c2.75,3.54,5.45,7.14,8.38,10.53c3.55,4.1,7.23,8.11,11.02,11.99c4.72,4.82,10.45,8,17.15,8.95c4.74,0.67,9.57,1.02,14.36,0.97
	c2.78-0.03,5.55-1.17,8.34-1.72c1.03-0.2,2.11-0.15,4.07-0.27c-2.45,2.04-4.01,3.72-5.9,4.82c-6.41,3.73-12.89,7.46-20.46,8.27
	c-4.87,0.52-9.93,1.59-14.64,0.83c-6.77-1.09-13.36-3.4-19-7.78c-6.36-4.93-12.96-9.56-19.34-14.47c-4.04-3.11-7.8-6.57-11.81-9.73
	c-7.16-5.63-14.86-10.2-24.01-11.83c-0.92-0.16-1.78-0.65-2.82-1.04c1.69,4.43,3.54,8.53,4.79,12.81c1.24,4.22,1.92,8.61,2.77,12.94
	c0.97,4.93,1.84,9.88,2.78,14.82c0.46,2.42,0.65,4.96,1.55,7.2c2.63,6.53,7.91,10.43,14.19,13.02c1.85,0.76,4.03,0.72,6.06,1.05
	c0.08,0.35,0.16,0.7,0.25,1.05c-1.7,0.69-3.39,1.93-5.09,1.95c-4.19,0.05-8.46-0.08-12.58-0.83c-5.04-0.92-8.22-4.95-11.08-8.71
	c-4.11-5.41-7.48-11.38-11.36-16.97c-2.32-3.34-4.64-6.86-7.66-9.49c-3.48-3.03-7.69-5.23-11.68-7.63c-0.74-0.45-1.92-0.17-3.5-0.26
	c0.83,1.04,1.24,1.68,1.77,2.2c7.36,7.08,12.86,15.49,16.67,24.86c2.46,6.06,4.93,12.26,4.72,19.12c-0.09,2.94,1.06,5.93,0.88,8.85
	c-0.3,4.61-1.25,9.18-1.91,13.76c-0.07,0.5-0.03,1.01-0.08,1.52c-0.65,6.85-0.67,13.83-2.11,20.51c-2.31,10.7-2.08,21.45-1.59,32.16
	c0.19,4.17,2.33,8.65,4.74,12.21c3.07,4.54,7.12,8.48,11.12,12.29c2.47,2.37,5.62,4.03,8.47,6.01c-0.05,0.28-0.09,0.57-0.14,0.85
	c-3.24-0.46-6.62-0.5-9.7-1.49c-4.87-1.57-9.67-3.5-14.25-5.77c-10-4.97-16.87-12.91-20.25-23.55c-1.27-4.01-1.46-8.36-2.23-12.53
	c-0.6-3.27-1.35-6.52-2.02-9.79c-0.06-0.3-0.04-0.61-0.06-0.91c-0.31-5.32-0.16-10.71-1.02-15.93c-1.19-7.24-1.32-14.73-4.64-21.55
	c-1.87-3.85-3.4-7.87-5.08-11.82c-0.32,0.04-0.65,0.07-0.97,0.11c-0.71,1.25-1.37,2.53-2.14,3.75c-3.78,6.01-7.51,12.06-11.4,18
	c-4.43,6.78-10.01,12.91-12.71,20.65c-2.06,5.93-1.56,12.01,1.66,17.61c0.88,1.53,2.04,2.89,3.61,5.09
	c-1.91-0.35-3.27-0.33-4.38-0.84c-5.62-2.58-9.34-6.7-10.92-12.88c-1.17-4.57-1.3-8.89-0.04-13.49c1.11-4.07,1.32-8.39,2.12-12.56
	c0.85-4.43,2.22-8.78,2.82-13.24c0.33-2.47-0.31-5.11-0.77-7.63c-0.56-3.09-1.26-6.17-2.13-9.18c-0.43-1.5-1.39-2.85-2.1-4.26
	c-0.25,0.09-0.5,0.18-0.75,0.26c-0.03,0.65-0.1,1.31-0.1,1.96c0.03,6.99-0.58,13.88-2.94,20.55c-1.83,5.17-3.06,10.57-5.27,15.56
	c-1.57,3.56-4.17,6.71-6.57,9.83c-2.25,2.93-4.61,5.87-7.36,8.3c-4.63,4.08-9.62,7.76-14.45,11.62c-3.5,2.8-6.94,5.69-10.49,8.42
	c-3.38,2.6-7.07,4.83-10.27,7.62c-4.12,3.59-7.89,7.58-11.8,11.4c-0.87,0.85-1.69,1.75-2.57,2.59c-4.08,3.94-6.52,8.8-7.14,14.35
	c-0.65,5.77-0.9,11.59-1.02,17.39c-0.05,2.21,0.78,4.44,1.18,6.67c0.13,0.74,0.14,1.5,0.21,2.25c-0.75-0.39-1.82-0.59-2.2-1.21
	c-2.37-3.87-4.73-7.77-6.83-11.79c-4.72-9.01-5.44-18.85-4.28-28.6c0.83-6.95,4.46-13.15,8.8-18.77
	c5.22-6.76,10.26-13.66,15.49-20.42c2.99-3.86,6.57-7.31,9.2-11.38c3.15-4.87,5.72-10.13,8.26-15.36
	C926.12,663.76,926.62,661.02,927.37,658.64z M950.13,478.77c-16.74-1.19-36.56,9.39-45.83,18.34
	c-12.81,12.37-20.69,27.38-22.1,45.1c-1.85,23.42,6.77,43,24.26,58.54c12.09,10.74,26.61,16.61,42.6,16.93
	c41.48,0.82,69.56-31.72,71.8-64.37c1.56-22.82-6.61-42.16-23.5-57.3C984.44,484.41,968.89,478.45,950.13,478.77z M995.47,470.61
	c0.07-0.07,0.2-0.14,0.2-0.21c0-0.07-0.13-0.14-0.2-0.21c-0.07,0.11-0.14,0.21-0.21,0.32C995.33,470.54,995.4,470.58,995.47,470.61z
	"/>
<path class="st8" d="M970.59,894.75c-12,0.82-18.46-9.03-18.46-18.11c-0.01-8.78,6.84-18.7,19.98-18
	c10.1,0.54,16.83,8.13,16.93,20.07C989.09,885.82,980.63,895.95,970.59,894.75z"/>
<path class="st9" d="M1074.98,399.09c0.75,7.8-7.7,14.05-14.14,13.81c-7.04-0.25-12.78-5.07-12.86-12.45
	c-0.1-9.77,4.74-15.53,12.86-15.55C1067.21,384.9,1075.85,390.89,1074.98,399.09z"/>
<path class="st9" d="M760.97,583.89c-8.07,0-14.31-5.67-13.81-13.13c0.48-7.15,5.37-14,14.43-13.93
	c7.41,0.06,13.68,6.05,13.54,13.71C775,577.74,769.82,584.55,760.97,583.89z"/>
<path class="st9" d="M819.05,695.35c-0.34-11.12,6.54-14.22,13.57-14.41c6.79-0.18,13.03,6.1,13.55,13.26
	c0.63,8.8-7.85,14.57-14.09,14.59C824.49,708.82,819.06,703.19,819.05,695.35z"/>
<path class="st0" d="M923.28,347.96c8.03-0.68,13.86,5.89,13.77,13.75c-0.08,7.05-6.01,13.29-14.28,13.36
	c-7.76,0.06-14.14-7.7-13.57-13.75C909.84,354.5,912.97,347.34,923.28,347.96z"/>
<path class="st0" d="M812.08,432.41c0,9.12-4.68,13.49-14.35,13.55c-6.67,0.04-12.9-5.64-12.63-13.96
	c0.21-6.5,4.54-13.85,15.34-13.16C807.1,419.25,812.08,424.66,812.08,432.41z"/>
<path class="st0" d="M1132.61,509.87c8.64,0,13.31,5.15,13.31,14.67c0,7.23-5.92,12.37-14.23,12.37c-6.69,0-12.76-5.53-12.76-11.6
	C1118.95,514.51,1123.06,509.87,1132.61,509.87z"/>
<path class="st0" d="M1107.95,661.36c0,8.97-4.74,13.23-14.09,13.58c-6.35,0.24-12.81-6.64-13.1-12.87
	c-0.36-7.76,6.47-15.04,14.67-14.38C1102.89,648.28,1107.95,653.26,1107.95,661.36z"/>
<path class="st8" d="M1033.99,897.05c-1.13-10.31,9.36-18.78,19.02-18.38c9.48,0.4,18.37,8.4,17.83,17.98
	c-0.62,11.06-6.7,18.4-18.8,18.84C1042.97,915.82,1033.41,909.37,1033.99,897.05z"/>
<path class="st8" d="M907.06,899.04c1.07,5.35-2.06,9.55-6.17,13.43c-3.27,3.08-7.66,4.12-11.47,3.97c-5.02-0.2-10.54-1.39-14-5.91
	c-2.25-2.94-3.93-6.17-4.45-10.12c-1.76-13.34,9.21-21.45,19.32-20.82C899.75,880.18,907.05,887.78,907.06,899.04z"/>
<path class="st10" d="M674.17,800.43c5.18-0.6,10.36-1.19,15.5-1.79c1.16-4.63,2.3-9.15,3.43-13.67c0.34-0.1,0.67-0.2,1.01-0.3
	c2.19,4.68,4.39,9.37,6.34,13.54c5.35,0,10.33,0,15.77,0c-1.37,1.36-2.58,2.76-3.99,3.91c-2.06,1.68-4.36,3.07-6.34,4.83
	c-0.51,0.45-0.52,1.98-0.19,2.77c1.63,3.95,3.45,7.82,5.2,11.71c-0.16,0.26-0.31,0.52-0.47,0.79c-2.21-1.09-4.47-2.08-6.6-3.3
	c-2.05-1.17-3.83-3.07-6-3.68c-1.25-0.35-3.22,0.96-4.54,1.96c-2.83,2.14-5.44,4.56-8.7,7.34c-0.24-1.45-0.59-2.22-0.43-2.86
	c0.89-3.56,1.99-7.08,2.81-10.66c0.15-0.65-0.47-1.84-1.08-2.24c-3.84-2.52-7.79-4.89-11.7-7.32
	C674.18,801.12,674.18,800.77,674.17,800.43z"/>
<path class="st11" d="M915.46,189.18c1.67-2.96,2.76-5.14,4.09-7.16c1.54-2.34,0.91-4.13-0.93-5.89c-1.71-1.64-3.31-3.38-4.96-5.08
	c0.12-0.29,0.23-0.57,0.35-0.86c1.21,0,2.46-0.19,3.63,0.04c2.19,0.44,4.32,1.25,6.51,1.64c0.55,0.1,1.51-0.63,1.9-1.23
	c1.4-2.14,2.6-4.4,3.95-6.57c0.26-0.42,0.81-0.66,1.23-0.99c0.28,0.46,0.73,0.9,0.81,1.39c0.48,3.02,0.88,6.06,1.36,9.45
	c3.29,0.67,6.75,1.35,10.19,2.1c0.51,0.11,0.96,0.52,1.44,0.78c-0.33,0.41-0.58,1.01-1.01,1.21c-2.32,1.07-4.78,1.88-6.99,3.14
	c-0.92,0.52-1.84,1.93-1.85,2.94c-0.03,2.24,0.56,4.48,0.81,6.73c0.11,0.96,0.02,1.95,0.02,3.25c-3.12-3.29-5.93-6.27-8.52-9
	C923.25,186.54,919.98,188.64,915.46,189.18z"/>
<path class="st12" d="M950.13,478.77c18.76-0.32,34.31,5.64,47.24,17.23c16.89,15.14,25.06,34.48,23.5,57.3
	c-2.24,32.65-30.32,65.19-71.8,64.37c-15.99-0.32-30.51-6.19-42.6-16.93c-17.49-15.53-26.11-35.12-24.26-58.54
	c1.4-17.72,9.29-32.73,22.1-45.1C913.57,488.16,933.39,477.58,950.13,478.77z M958.22,564.78c2.52,4.38,4.36,7.95,6.61,11.24
	c0.69,1.02,2.49,1.77,3.8,1.79c8.33,0.16,16.67,0.09,25,0.07c0.81,0,1.63-0.21,3.02-0.41c-1.71-2.68-3.17-4.77-4.42-6.97
	c-5.63-9.89-11.17-19.84-16.82-29.73c-4.57-8-9.3-15.92-13.88-23.92c-2.97-5.19-5.75-10.5-8.76-15.67c-0.6-1.04-1.85-1.71-2.83-2.58
	c-1.76,2.9-3.37,5.46-4.89,8.06c-3.63,6.17-7.23,12.36-10.82,18.56c-5.06,8.75-10.14,17.48-15.14,26.26
	c-4.7,8.27-9.31,16.6-14.23,25.38c1.4,0.39,2.56,0.97,3.73,0.98c7.93,0.08,15.86,0.15,23.78-0.06c1.47-0.04,3.5-0.98,4.24-2.16
	c2.09-3.31,3.65-6.96,5.68-10.99c-5.14,0-9.65,0-14.75,0c7.78-13.56,15.27-26.61,22.9-39.9c7.71,13.36,15.22,26.38,23.09,40.04
	C968.34,564.78,963.77,564.78,958.22,564.78z"/>
<path class="st6" d="M995.47,470.61c-0.07-0.04-0.14-0.07-0.21-0.11c0.07-0.11,0.14-0.21,0.21-0.32c0.07,0.07,0.2,0.14,0.2,0.21
	C995.66,470.47,995.54,470.54,995.47,470.61z"/>
<path class="st2" d="M958.22,564.78c5.55,0,10.12,0,15.3,0c-7.88-13.65-15.39-26.67-23.09-40.04c-7.63,13.3-15.12,26.34-22.9,39.9
	c5.11,0,9.61,0,14.75,0c-2.03,4.04-3.59,7.68-5.68,10.99c-0.74,1.18-2.77,2.12-4.24,2.16c-7.92,0.21-15.85,0.14-23.78,0.06
	c-1.16-0.01-2.32-0.59-3.73-0.98c4.92-8.79,9.53-17.11,14.23-25.38c5-8.78,10.08-17.52,15.14-26.26c3.59-6.2,7.19-12.38,10.82-18.56
	c1.53-2.6,3.13-5.16,4.89-8.06c0.98,0.87,2.23,1.54,2.83,2.58c3.01,5.17,5.78,10.48,8.76,15.67c4.58,8,9.3,15.91,13.88,23.92
	c5.65,9.89,11.19,19.83,16.82,29.73c1.25,2.2,2.71,4.29,4.42,6.97c-1.39,0.2-2.2,0.41-3.02,0.41c-8.33,0.02-16.67,0.09-25-0.07
	c-1.31-0.03-3.11-0.78-3.8-1.79C962.58,572.73,960.74,569.15,958.22,564.78z"/>
</svg>
